<?xml version="1.0" encoding="UTF-8" standalone="no"?>
<!-- Created with Inkscape (http://www.inkscape.org/) -->

<svg
   xmlns:dc="http://purl.org/dc/elements/1.1/"
   xmlns:cc="http://creativecommons.org/ns#"
   xmlns:rdf="http://www.w3.org/1999/02/22-rdf-syntax-ns#"
   xmlns:svg="http://www.w3.org/2000/svg"
   xmlns="http://www.w3.org/2000/svg"
   xmlns:sodipodi="http://sodipodi.sourceforge.net/DTD/sodipodi-0.dtd"
   xmlns:inkscape="http://www.inkscape.org/namespaces/inkscape"
   id="svg2"
   version="1.1"
   inkscape:version="0.91 r13725"
   xml:space="preserve"
   width="810"
   height="790.68164"
   viewBox="0 0 809.99999 790.68163"
   sodipodi:docname="publicdomainq-analog_film_movie_camera.svg"
   inkscape:export-filename="/media/sdb1/_GRAFIKA/Publicdomainq/publicdomainq-analog_film_movie_camera.png"
   inkscape:export-xdpi="89.410088"
   inkscape:export-ydpi="89.410088"><title
     id="title8133">Analog film movie camera</title><metadata
     id="metadata8"><rdf:RDF><cc:Work
         rdf:about=""><dc:format>image/svg+xml</dc:format><dc:type
           rdf:resource="http://purl.org/dc/dcmitype/StillImage" /><dc:title>Analog film movie camera</dc:title><cc:license
           rdf:resource="http://creativecommons.org/publicdomain/zero/1.0/" /><dc:subject><rdf:Bag><rdf:li>movie</rdf:li><rdf:li>video</rdf:li><rdf:li>camera</rdf:li><rdf:li>film</rdf:li><rdf:li>reel</rdf:li><rdf:li>record</rdf:li><rdf:li>lens</rdf:li><rdf:li>tripod</rdf:li><rdf:li>publicdomainq.net</rdf:li></rdf:Bag></dc:subject><dc:description>This image was adapted from a picture posted to publicdomainq.net. All of the images on these sites are in the public domain i.e. CC0. This site is only in Japanese but can be easily navigated with Google Translate.</dc:description></cc:Work><cc:License
         rdf:about="http://creativecommons.org/publicdomain/zero/1.0/"><cc:permits
           rdf:resource="http://creativecommons.org/ns#Reproduction" /><cc:permits
           rdf:resource="http://creativecommons.org/ns#Distribution" /><cc:permits
           rdf:resource="http://creativecommons.org/ns#DerivativeWorks" /></cc:License></rdf:RDF></metadata><defs
     id="defs6"><linearGradient
       x1="0"
       y1="0"
       x2="1"
       y2="0"
       gradientUnits="userSpaceOnUse"
       gradientTransform="matrix(0.207871,2079.62,2079.62,-0.207871,1633.93,63.0801)"
       spreadMethod="pad"
       id="linearGradient44"><stop
         style="stop-opacity:1;stop-color:#7b7979"
         offset="0"
         id="stop46" /><stop
         style="stop-opacity:1;stop-color:#7b7979"
         offset="0.3"
         id="stop48" /><stop
         style="stop-opacity:1;stop-color:#4f4c4d"
         offset="0.4"
         id="stop50" /><stop
         style="stop-opacity:1;stop-color:#bdbcbc"
         offset="0.5"
         id="stop52-3" /><stop
         style="stop-opacity:1;stop-color:#4f4c4d"
         offset="0.6"
         id="stop54-6" /><stop
         style="stop-opacity:1;stop-color:#7b7979"
         offset="0.7"
         id="stop56-7" /><stop
         style="stop-opacity:1;stop-color:#7b7979"
         offset="1"
         id="stop58-5" /></linearGradient><linearGradient
       x1="0"
       y1="0"
       x2="1"
       y2="0"
       gradientUnits="userSpaceOnUse"
       gradientTransform="matrix(690.068,0,0,-690.068,4583.12,1200.42)"
       spreadMethod="pad"
       id="linearGradient166"><stop
         style="stop-opacity:1;stop-color:#656263"
         offset="0"
         id="stop168" /><stop
         style="stop-opacity:1;stop-color:#4f4c4d"
         offset="0.4739314"
         id="stop170" /><stop
         style="stop-opacity:1;stop-color:#4f4c4d"
         offset="1"
         id="stop172" /></linearGradient><clipPath
       clipPathUnits="userSpaceOnUse"
       id="clipPath40-3"><path
         d="M 1634.02,63.082 C 1208.73,63.1211 843.086,318.441 681.969,684.121 625.5,812.289 594.172,953.969 594.18,1103.02 c 0,149.06 31.375,290.78 87.875,418.95 82.304,186.69 217.933,344.61 387.585,454.43 -11.05,-21.67 -18.27,-36.04 -18.27,-36.04 C 777.883,1762.18 597.051,1453.71 597.004,1102.93 596.922,551.449 1044.02,104.301 1595.55,104.219 c 551.52,0 998.67,447.14 998.67,998.641 0,355.2 -185.43,667.07 -464.74,844.19 0,0 -20.38,43.68 -43.22,92.44 92.19,-44.6 176.81,-102.42 251.38,-170.99 206.67,-190.06 336.22,-462.77 336.24,-765.64 C 2673.84,528.582 2208.34,63.082 1634.02,63.082"
         id="path42-6"
         inkscape:connector-curvature="0" /></clipPath><clipPath
       clipPathUnits="userSpaceOnUse"
       id="clipPath162-9"><path
         d="m 4583.12,919.91 690.06,-204.14 0,969.3 -690.06,-204.14 0,-561.02 z"
         id="path164-2"
         inkscape:connector-curvature="0" /></clipPath><clipPath
       clipPathUnits="userSpaceOnUse"
       id="clipPath18"><path
         d="m 5709.02,369.93 -5340.582,0 0,5340.8 5340.582,0 0,-5340.8 z"
         id="path20"
         inkscape:connector-curvature="0" /></clipPath><clipPath
       clipPathUnits="userSpaceOnUse"
       id="clipPath24"><path
         d="M 1821.38,56.6914 1670.55,94.8711 2020.64,1477.49 2171.46,1439.38 1821.38,56.6914 Z"
         id="path26"
         inkscape:connector-curvature="0" /></clipPath><linearGradient
       x1="0"
       y1="0"
       x2="1"
       y2="0"
       gradientUnits="userSpaceOnUse"
       gradientTransform="matrix(103.696,-31.1073,-31.1073,-103.696,1862.97,784.54)"
       spreadMethod="pad"
       id="linearGradient28"><stop
         style="stop-opacity:1;stop-color:#a7a5a6"
         offset="0"
         id="stop30" /><stop
         style="stop-opacity:1;stop-color:#a7a5a6"
         offset="0.033708"
         id="stop32" /><stop
         style="stop-opacity:1;stop-color:#a7a5a6"
         offset="0.0922674"
         id="stop34" /><stop
         style="stop-opacity:1;stop-color:#c6c5c5"
         offset="0.382022"
         id="stop36" /><stop
         style="stop-opacity:1;stop-color:#c6c5c5"
         offset="0.43869255"
         id="stop38" /><stop
         style="stop-opacity:1;stop-color:#a7a5a6"
         offset="0.719101"
         id="stop40" /><stop
         style="stop-opacity:1;stop-color:#d3d2d2"
         offset="1"
         id="stop42" /><stop
         style="stop-opacity:1;stop-color:#d3d2d2"
         offset="1"
         id="stop44" /></linearGradient><clipPath
       clipPathUnits="userSpaceOnUse"
       id="clipPath52"><path
         d="m 368.438,369.93 5340.58,0 0,5340.8 -5340.58,0 0,-5340.8 z"
         id="path54"
         inkscape:connector-curvature="0" /></clipPath><clipPath
       clipPathUnits="userSpaceOnUse"
       id="clipPath62"><path
         d="m 5709.02,369.93 -5340.582,0 0,5340.8 5340.582,0 0,-5340.8 z"
         id="path64"
         inkscape:connector-curvature="0" /></clipPath><clipPath
       clipPathUnits="userSpaceOnUse"
       id="clipPath68"><path
         d="m 2734.59,-78.0313 -155.53,-4.9179 -44.79,1425.5792 155.39,4.92 44.93,-1425.5813 z"
         id="path70"
         inkscape:connector-curvature="0" /></clipPath><linearGradient
       x1="0"
       y1="0"
       x2="1"
       y2="0"
       gradientUnits="userSpaceOnUse"
       gradientTransform="matrix(108.318,-1.31222,-1.31222,-108.318,2573.8,633.04)"
       spreadMethod="pad"
       id="linearGradient72"><stop
         style="stop-opacity:1;stop-color:#a7a5a6"
         offset="0"
         id="stop74" /><stop
         style="stop-opacity:1;stop-color:#a7a5a6"
         offset="0.033708"
         id="stop76" /><stop
         style="stop-opacity:1;stop-color:#a7a5a6"
         offset="0.0922674"
         id="stop78" /><stop
         style="stop-opacity:1;stop-color:#c6c5c5"
         offset="0.382022"
         id="stop80" /><stop
         style="stop-opacity:1;stop-color:#c6c5c5"
         offset="0.43869255"
         id="stop82" /><stop
         style="stop-opacity:1;stop-color:#a7a5a6"
         offset="0.719101"
         id="stop84" /><stop
         style="stop-opacity:1;stop-color:#d3d2d2"
         offset="1"
         id="stop86" /><stop
         style="stop-opacity:1;stop-color:#d3d2d2"
         offset="1"
         id="stop88" /></linearGradient><clipPath
       clipPathUnits="userSpaceOnUse"
       id="clipPath96"><path
         d="m 368.438,369.93 5340.58,0 0,5340.8 -5340.58,0 0,-5340.8 z"
         id="path98"
         inkscape:connector-curvature="0" /></clipPath><clipPath
       clipPathUnits="userSpaceOnUse"
       id="clipPath106"><path
         d="m 5709.02,369.93 -5340.582,0 0,5340.8 5340.582,0 0,-5340.8 z"
         id="path108"
         inkscape:connector-curvature="0" /></clipPath><clipPath
       clipPathUnits="userSpaceOnUse"
       id="clipPath112"><path
         d="M 3719.04,64.4219 3572.01,13.7305 3106.2,1361.9 3253.29,1412.59 3719.04,64.4219 Z"
         id="path114"
         inkscape:connector-curvature="0" /></clipPath><linearGradient
       x1="0"
       y1="0"
       x2="1"
       y2="0"
       gradientUnits="userSpaceOnUse"
       gradientTransform="matrix(103.791,30.8767,30.8767,-103.791,3354.52,695.86)"
       spreadMethod="pad"
       id="linearGradient116"><stop
         style="stop-opacity:1;stop-color:#a7a5a6"
         offset="0"
         id="stop118" /><stop
         style="stop-opacity:1;stop-color:#a7a5a6"
         offset="0.033708"
         id="stop120" /><stop
         style="stop-opacity:1;stop-color:#a7a5a6"
         offset="0.0922674"
         id="stop122" /><stop
         style="stop-opacity:1;stop-color:#c6c5c5"
         offset="0.382022"
         id="stop124" /><stop
         style="stop-opacity:1;stop-color:#c6c5c5"
         offset="0.43869255"
         id="stop126" /><stop
         style="stop-opacity:1;stop-color:#a7a5a6"
         offset="0.719101"
         id="stop128" /><stop
         style="stop-opacity:1;stop-color:#d3d2d2"
         offset="1"
         id="stop130" /><stop
         style="stop-opacity:1;stop-color:#d3d2d2"
         offset="1"
         id="stop132" /></linearGradient><clipPath
       clipPathUnits="userSpaceOnUse"
       id="clipPath140"><path
         d="m 368.438,369.93 5340.58,0 0,5340.8 -5340.58,0 0,-5340.8 z"
         id="path142"
         inkscape:connector-curvature="0" /></clipPath><clipPath
       clipPathUnits="userSpaceOnUse"
       id="clipPath158"><path
         d="m 3189.02,1968.7 -1093.01,0 0,-225.57 3.31,0 c -2.11,-5.06 -3.31,-10.41 -3.31,-15.75 0,-80.23 244.55,-145.13 546.54,-145.13 301.78,0 546.47,64.9 546.47,145.13 0,5.34 -1.26,10.69 -3.3,15.75 l 3.3,0 0,225.57 z"
         id="path160"
         inkscape:connector-curvature="0" /></clipPath><linearGradient
       x1="0"
       y1="0"
       x2="1"
       y2="0"
       gradientUnits="userSpaceOnUse"
       gradientTransform="matrix(1093.01,0,0,-1093.01,2096.01,1775.47)"
       spreadMethod="pad"
       id="linearGradient162"><stop
         style="stop-opacity:1;stop-color:#231f20"
         offset="0"
         id="stop164" /><stop
         style="stop-opacity:1;stop-color:#393536"
         offset="1"
         id="stop166" /></linearGradient><clipPath
       clipPathUnits="userSpaceOnUse"
       id="clipPath174"><path
         d="m 368.438,369.93 5340.58,0 0,5340.8 -5340.58,0 0,-5340.8 z"
         id="path176"
         inkscape:connector-curvature="0" /></clipPath><clipPath
       clipPathUnits="userSpaceOnUse"
       id="clipPath190"><path
         d="m 3073.07,2203.26 c 0,-175.43 -142.24,-317.68 -317.67,-317.68 -175.49,0 -317.67,142.25 -317.67,317.68 0,175.5 142.18,317.59 317.67,317.59 175.43,0 317.67,-142.09 317.67,-317.59 z"
         id="path192"
         inkscape:connector-curvature="0" /></clipPath><radialGradient
       fx="0"
       fy="0"
       cx="0"
       cy="0"
       r="1"
       gradientUnits="userSpaceOnUse"
       gradientTransform="matrix(317.654,0,0,-317.654,2755.4,2203.22)"
       spreadMethod="pad"
       id="radialGradient194"><stop
         style="stop-opacity:1;stop-color:#393536"
         offset="0"
         id="stop196" /><stop
         style="stop-opacity:1;stop-color:#393536"
         offset="0"
         id="stop198" /><stop
         style="stop-opacity:1;stop-color:#393536"
         offset="0"
         id="stop200" /><stop
         style="stop-opacity:1;stop-color:#393536"
         offset="0.16812245"
         id="stop202" /><stop
         style="stop-opacity:1;stop-color:#0e0f0e"
         offset="1"
         id="stop204" /></radialGradient><clipPath
       clipPathUnits="userSpaceOnUse"
       id="clipPath212"><path
         d="m 368.438,369.93 5340.58,0 0,5340.8 -5340.58,0 0,-5340.8 z"
         id="path214"
         inkscape:connector-curvature="0" /></clipPath><clipPath
       clipPathUnits="userSpaceOnUse"
       id="clipPath222"><path
         d="m 2973.23,2357.59 c 0,-34.38 -28.05,-62.22 -62.44,-62.22 l -311.13,0 c -34.31,0 -62.08,27.84 -62.08,62.22 l 0,228.24 c 0,34.38 27.77,62.22 62.08,62.22 l 311.13,0 c 34.39,0 62.44,-27.84 62.44,-62.22 l 0,-228.24 z"
         id="path224"
         inkscape:connector-curvature="0" /></clipPath><linearGradient
       x1="0"
       y1="0"
       x2="1"
       y2="0"
       gradientUnits="userSpaceOnUse"
       gradientTransform="matrix(0,-293.057,-293.057,0,2755.4,2585.82)"
       spreadMethod="pad"
       id="linearGradient226"><stop
         style="stop-opacity:1;stop-color:#231f20"
         offset="0"
         id="stop228" /><stop
         style="stop-opacity:1;stop-color:#393536"
         offset="1"
         id="stop230" /></linearGradient><clipPath
       clipPathUnits="userSpaceOnUse"
       id="clipPath238"><path
         d="m 368.438,369.93 5340.58,0 0,5340.8 -5340.58,0 0,-5340.8 z"
         id="path240"
         inkscape:connector-curvature="0" /></clipPath><clipPath
       clipPathUnits="userSpaceOnUse"
       id="clipPath248"><path
         d="m 2076.54,2649.32 c 0,-34.38 27.91,-62.3 62.3,-62.3 l 1271.95,0 c 34.24,0 62.08,27.92 62.08,62.3 l 0,462.79 c 0,34.39 -27.84,62.23 -62.08,62.23 l -1271.95,0 c -34.39,0 -62.3,-27.84 -62.3,-62.23 l 0,-462.79 z"
         id="path250"
         inkscape:connector-curvature="0" /></clipPath><linearGradient
       x1="0"
       y1="0"
       x2="1"
       y2="0"
       gradientUnits="userSpaceOnUse"
       gradientTransform="matrix(1396.34,0,0,-1396.34,2076.54,2880.68)"
       spreadMethod="pad"
       id="linearGradient252"><stop
         style="stop-opacity:1;stop-color:#231f20"
         offset="0"
         id="stop254" /><stop
         style="stop-opacity:1;stop-color:#393536"
         offset="1"
         id="stop256" /></linearGradient><clipPath
       clipPathUnits="userSpaceOnUse"
       id="clipPath264"><path
         d="m 368.438,369.93 5340.58,0 0,5340.8 -5340.58,0 0,-5340.8 z"
         id="path266"
         inkscape:connector-curvature="0" /></clipPath><clipPath
       clipPathUnits="userSpaceOnUse"
       id="clipPath280"><path
         d="m 3107.32,4601.9 c 0,-431.72 -349.95,-781.88 -781.74,-781.88 -431.86,0 -781.8,350.16 -781.8,781.88 0,431.72 349.94,781.66 781.8,781.66 431.79,0 781.74,-349.94 781.74,-781.66 z"
         id="path282"
         inkscape:connector-curvature="0" /></clipPath><radialGradient
       fx="0"
       fy="0"
       cx="0"
       cy="0"
       r="1"
       gradientUnits="userSpaceOnUse"
       gradientTransform="matrix(781.769,0,0,-781.769,2325.55,4601.79)"
       spreadMethod="pad"
       id="radialGradient284"><stop
         style="stop-opacity:1;stop-color:#231f20"
         offset="0"
         id="stop286" /><stop
         style="stop-opacity:1;stop-color:#231f20"
         offset="0.28688075"
         id="stop288" /><stop
         style="stop-opacity:1;stop-color:#1a212b"
         offset="1"
         id="stop290" /></radialGradient><clipPath
       clipPathUnits="userSpaceOnUse"
       id="clipPath298"><path
         d="m 368.438,369.93 5340.58,0 0,5340.8 -5340.58,0 0,-5340.8 z"
         id="path300"
         inkscape:connector-curvature="0" /></clipPath><clipPath
       clipPathUnits="userSpaceOnUse"
       id="clipPath308"><path
         d="m 4717.47,4601.9 c 0,-431.72 -350.08,-781.88 -781.8,-781.88 -431.58,0 -781.66,350.16 -781.66,781.88 0,431.72 350.08,781.66 781.66,781.66 431.72,0 781.8,-349.94 781.8,-781.66 z"
         id="path310"
         inkscape:connector-curvature="0" /></clipPath><radialGradient
       fx="0"
       fy="0"
       cx="0"
       cy="0"
       r="1"
       gradientUnits="userSpaceOnUse"
       gradientTransform="matrix(781.751,0,0,-781.751,3935.74,4601.79)"
       spreadMethod="pad"
       id="radialGradient312"><stop
         style="stop-opacity:1;stop-color:#231f20"
         offset="0"
         id="stop314" /><stop
         style="stop-opacity:1;stop-color:#231f20"
         offset="0.28688075"
         id="stop316" /><stop
         style="stop-opacity:1;stop-color:#1a212b"
         offset="1"
         id="stop318" /></radialGradient><clipPath
       clipPathUnits="userSpaceOnUse"
       id="clipPath326"><path
         d="m 368.438,369.93 5340.58,0 0,5340.8 -5340.58,0 0,-5340.8 z"
         id="path328"
         inkscape:connector-curvature="0" /></clipPath><clipPath
       clipPathUnits="userSpaceOnUse"
       id="clipPath336"><path
         d="m 4060.19,3438.93 c -7.73,0 -15.4,-3.38 -22.29,-9.35 -29.39,-11.54 -81.7,-29.6 -121.64,-29.6 l -233.29,0 0,-287.87 286.38,0 c 21.02,-1.4 45.14,-4.78 66.44,-12.23 7.6,-7.03 15.82,-11.04 24.4,-11.04 38.74,0 70.11,78.26 70.11,174.87 0,96.89 -31.37,175.22 -70.11,175.22 z"
         id="path338"
         inkscape:connector-curvature="0" /></clipPath><linearGradient
       x1="0"
       y1="0"
       x2="1"
       y2="0"
       gradientUnits="userSpaceOnUse"
       gradientTransform="matrix(447.329,0,0,-447.329,3682.97,3263.89)"
       spreadMethod="pad"
       id="linearGradient340"><stop
         style="stop-opacity:1;stop-color:#231f20"
         offset="0"
         id="stop342" /><stop
         style="stop-opacity:1;stop-color:#393536"
         offset="1"
         id="stop344" /></linearGradient><clipPath
       clipPathUnits="userSpaceOnUse"
       id="clipPath352"><path
         d="m 368.438,369.93 5340.58,0 0,5340.8 -5340.58,0 0,-5340.8 z"
         id="path354"
         inkscape:connector-curvature="0" /></clipPath><clipPath
       clipPathUnits="userSpaceOnUse"
       id="clipPath362"><path
         d="m 1380.37,3030.48 256.707,0 0,408.449 -256.707,0 0,-408.449 z"
         id="path364"
         inkscape:connector-curvature="0" /></clipPath><linearGradient
       x1="0"
       y1="0"
       x2="1"
       y2="0"
       gradientUnits="userSpaceOnUse"
       gradientTransform="matrix(0,-396.777,-396.777,0,1508.73,3423.37)"
       spreadMethod="pad"
       id="linearGradient366"><stop
         style="stop-opacity:1;stop-color:#e2dcd7"
         offset="0"
         id="stop368" /><stop
         style="stop-opacity:1;stop-color:#e2dcd7"
         offset="0"
         id="stop370" /><stop
         style="stop-opacity:1;stop-color:#e2dcd7"
         offset="0"
         id="stop372" /><stop
         style="stop-opacity:1;stop-color:#e2dcd7"
         offset="0.04439189"
         id="stop374" /><stop
         style="stop-opacity:1;stop-color:#414547"
         offset="0.264045"
         id="stop376" /><stop
         style="stop-opacity:1;stop-color:#e5e4e4"
         offset="0.50547661"
         id="stop378" /><stop
         style="stop-opacity:1;stop-color:#e5e4e4"
         offset="0.573034"
         id="stop380" /><stop
         style="stop-opacity:1;stop-color:#e5e4e4"
         offset="0.64739366"
         id="stop382" /><stop
         style="stop-opacity:1;stop-color:#8b8e93"
         offset="0.876404"
         id="stop384" /><stop
         style="stop-opacity:1;stop-color:#d3d2d2"
         offset="1"
         id="stop386" /><stop
         style="stop-opacity:1;stop-color:#d3d2d2"
         offset="1"
         id="stop388" /></linearGradient><clipPath
       clipPathUnits="userSpaceOnUse"
       id="clipPath396"><path
         d="m 368.438,369.93 5340.58,0 0,5340.8 -5340.58,0 0,-5340.8 z"
         id="path398"
         inkscape:connector-curvature="0" /></clipPath><clipPath
       clipPathUnits="userSpaceOnUse"
       id="clipPath406"><path
         d="m 1835.51,3061.63 260.5,0 0,349.953 -260.5,0 0,-349.953 z"
         id="path408"
         inkscape:connector-curvature="0" /></clipPath><linearGradient
       x1="0"
       y1="0"
       x2="1"
       y2="0"
       gradientUnits="userSpaceOnUse"
       gradientTransform="matrix(0,-339.379,-339.379,0,1965.76,3403.8)"
       spreadMethod="pad"
       id="linearGradient410"><stop
         style="stop-opacity:1;stop-color:#e2dcd7"
         offset="0"
         id="stop412" /><stop
         style="stop-opacity:1;stop-color:#e2dcd7"
         offset="0"
         id="stop414" /><stop
         style="stop-opacity:1;stop-color:#e2dcd7"
         offset="0"
         id="stop416" /><stop
         style="stop-opacity:1;stop-color:#e2dcd7"
         offset="0.04439189"
         id="stop418" /><stop
         style="stop-opacity:1;stop-color:#414547"
         offset="0.264045"
         id="stop420" /><stop
         style="stop-opacity:1;stop-color:#e5e4e4"
         offset="0.50547661"
         id="stop422" /><stop
         style="stop-opacity:1;stop-color:#e5e4e4"
         offset="0.573034"
         id="stop424" /><stop
         style="stop-opacity:1;stop-color:#e5e4e4"
         offset="0.64739366"
         id="stop426" /><stop
         style="stop-opacity:1;stop-color:#8b8e93"
         offset="0.876404"
         id="stop428" /><stop
         style="stop-opacity:1;stop-color:#d3d2d2"
         offset="1"
         id="stop430" /><stop
         style="stop-opacity:1;stop-color:#d3d2d2"
         offset="1"
         id="stop432" /></linearGradient><clipPath
       clipPathUnits="userSpaceOnUse"
       id="clipPath440"><path
         d="m 368.438,369.93 5340.58,0 0,5340.8 -5340.58,0 0,-5340.8 z"
         id="path442"
         inkscape:connector-curvature="0" /></clipPath><clipPath
       clipPathUnits="userSpaceOnUse"
       id="clipPath450"><path
         d="m 1205.3,2890.35 112.918,0 0,610.727 -112.918,0 0,-610.727 z"
         id="path452"
         inkscape:connector-curvature="0" /></clipPath><linearGradient
       x1="0"
       y1="0"
       x2="1"
       y2="0"
       gradientUnits="userSpaceOnUse"
       gradientTransform="matrix(0,-610.733,-610.733,0,1261.76,3489.41)"
       spreadMethod="pad"
       id="linearGradient454"><stop
         style="stop-opacity:1;stop-color:#231f20"
         offset="0"
         id="stop456" /><stop
         style="stop-opacity:1;stop-color:#393536"
         offset="1"
         id="stop458" /></linearGradient><clipPath
       clipPathUnits="userSpaceOnUse"
       id="clipPath466"><path
         d="m 368.438,369.93 5340.58,0 0,5340.8 -5340.58,0 0,-5340.8 z"
         id="path468"
         inkscape:connector-curvature="0" /></clipPath><clipPath
       clipPathUnits="userSpaceOnUse"
       id="clipPath500"><path
         d="m 1609.87,2948.85 272.25,0 0,552.227 -272.25,0 0,-552.227 z"
         id="path502"
         inkscape:connector-curvature="0" /></clipPath><linearGradient
       x1="0"
       y1="0"
       x2="1"
       y2="0"
       gradientUnits="userSpaceOnUse"
       gradientTransform="matrix(0,-549.715,-549.715,0,1746,3489.41)"
       spreadMethod="pad"
       id="linearGradient504"><stop
         style="stop-opacity:1;stop-color:#231f20"
         offset="0"
         id="stop506" /><stop
         style="stop-opacity:1;stop-color:#393536"
         offset="1"
         id="stop508" /></linearGradient><clipPath
       clipPathUnits="userSpaceOnUse"
       id="clipPath516"><path
         d="m 368.438,369.93 5340.58,0 0,5340.8 -5340.58,0 0,-5340.8 z"
         id="path518"
         inkscape:connector-curvature="0" /></clipPath><clipPath
       clipPathUnits="userSpaceOnUse"
       id="clipPath528"><path
         d="m 3273.96,2175.9 c -39.23,0 -72.98,29.6 -77.27,69.68 -4.57,42.76 26.29,81.01 69.04,85.5 l 1363.85,145.98 c 42.68,4.7 81,-26.3 85.64,-69.06 4.57,-42.89 -26.36,-81.14 -68.97,-85.63 L 3282.19,2176.39 c -2.68,-0.27 -5.49,-0.49 -8.23,-0.49 z"
         id="path530"
         inkscape:connector-curvature="0" /></clipPath><linearGradient
       x1="0"
       y1="0"
       x2="1"
       y2="0"
       gradientUnits="userSpaceOnUse"
       gradientTransform="matrix(16.5358,-150.875,-150.875,-16.5358,3947.46,2404.3)"
       spreadMethod="pad"
       id="linearGradient532"><stop
         style="stop-opacity:1;stop-color:#9b9791"
         offset="0"
         id="stop534" /><stop
         style="stop-opacity:1;stop-color:#9b9791"
         offset="0.033708"
         id="stop536" /><stop
         style="stop-opacity:1;stop-color:#9b9791"
         offset="0.06487673"
         id="stop538" /><stop
         style="stop-opacity:1;stop-color:#afaeb5"
         offset="0.219101"
         id="stop540" /><stop
         style="stop-opacity:1;stop-color:#afaeb5"
         offset="0.30316223"
         id="stop542" /><stop
         style="stop-opacity:1;stop-color:#62686c"
         offset="0.719101"
         id="stop544" /><stop
         style="stop-opacity:1;stop-color:#8b9094"
         offset="1"
         id="stop546" /></linearGradient><clipPath
       clipPathUnits="userSpaceOnUse"
       id="clipPath554"><path
         d="m 368.438,369.93 5340.58,0 0,5340.8 -5340.58,0 0,-5340.8 z"
         id="path556"
         inkscape:connector-curvature="0" /></clipPath><clipPath
       clipPathUnits="userSpaceOnUse"
       id="clipPath568"><path
         d="m 2839.01,2186.73 c 0,-23.13 -18.78,-41.83 -41.98,-41.83 -22.99,0 -41.63,18.7 -41.63,41.83 0,23.28 18.64,41.69 41.63,41.69 23.2,0 41.98,-18.41 41.98,-41.69 z"
         id="path570"
         inkscape:connector-curvature="0" /></clipPath><linearGradient
       x1="0"
       y1="0"
       x2="1"
       y2="0"
       gradientUnits="userSpaceOnUse"
       gradientTransform="matrix(83.603,0,0,-83.603,2755.4,2186.66)"
       spreadMethod="pad"
       id="linearGradient572"><stop
         style="stop-opacity:1;stop-color:#8d8b8b"
         offset="0"
         id="stop574" /><stop
         style="stop-opacity:1;stop-color:#514e4f"
         offset="0.19479654"
         id="stop576" /><stop
         style="stop-opacity:1;stop-color:#514e4f"
         offset="0.488764"
         id="stop578" /><stop
         style="stop-opacity:1;stop-color:#514e4f"
         offset="0.79587873"
         id="stop580" /><stop
         style="stop-opacity:1;stop-color:#3b3839"
         offset="1"
         id="stop582" /></linearGradient><clipPath
       clipPathUnits="userSpaceOnUse"
       id="clipPath590"><path
         d="m 368.438,369.93 5340.58,0 0,5340.8 -5340.58,0 0,-5340.8 z"
         id="path592"
         inkscape:connector-curvature="0" /></clipPath></defs><sodipodi:namedview
     pagecolor="#ffffff"
     bordercolor="#666666"
     borderopacity="1"
     objecttolerance="10"
     gridtolerance="10"
     guidetolerance="10"
     inkscape:pageopacity="0"
     inkscape:pageshadow="2"
     inkscape:window-width="1920"
     inkscape:window-height="1125"
     id="namedview4"
     showgrid="false"
     inkscape:zoom="0.82809608"
     inkscape:cx="566.41576"
     inkscape:cy="295.72119"
     inkscape:window-x="0"
     inkscape:window-y="0"
     inkscape:window-maximized="1"
     inkscape:current-layer="svg2"
     fit-margin-top="5"
     fit-margin-left="5"
     fit-margin-bottom="5"
     fit-margin-right="5" /><g
     id="g12"
     transform="matrix(0.15460175,0,0,-0.15460175,-63.505427,842.87346)"><g
       id="g14"><g
         id="g16"
         clip-path="url(#clipPath18)"><g
           id="g22"
           clip-path="url(#clipPath24)"><path
             d="m 1739,369 0,1 1,0 0,4 1,0 0,4 1,0 0,3 1,0 0,4 1,0 0,4 1,0 0,4 1,0 0,4 1,0 0,4 1,0 0,4 1,0 0,4 1,0 0,4 1,0 0,4 1,0 0,4 1,0 0,4 1,0 0,4 1,0 0,4 1,0 0,4 1,0 0,4 1,0 0,4 1,0 0,4 1,0 0,4 1,0 0,4 1,0 0,3 1,0 0,4 1,0 0,4 1,0 0,4 1,0 0,4 1,0 0,4 1,0 0,4 1,0 0,4 1,0 0,4 1,0 0,4 1,0 0,4 1,0 0,4 1,0 0,4 1,0 0,4 1,0 0,4 1,0 0,4 1,0 0,4 1,0 0,4 1,0 0,4 1,0 0,4 1,0 0,3 1,0 0,4 1,0 0,4 1,0 0,4 1,0 0,4 1,0 0,4 1,0 0,4 1,0 0,4 1,0 0,4 1,0 0,4 1,0 0,4 1,0 0,4 1,0 0,4 1,0 0,4 1,0 0,4 1,0 0,4 1,0 0,4 1,0 0,4 1,0 0,4 1,0 0,3 1,0 0,4 1,0 0,4 1,0 0,4 1,0 0,4 1,0 0,4 1,0 0,4 1,0 0,4 1,0 0,4 1,0 0,4 1,0 0,4 1,0 0,4 1,0 0,4 1,0 0,4 1,0 0,4 1,0 0,4 1,0 0,4 1,0 0,4 1,0 0,4 1,0 0,4 1,0 0,3 1,0 0,4 1,0 0,4 1,0 0,4 1,0 0,4 1,0 0,4 1,0 0,4 1,0 0,4 1,0 0,4 1,0 0,4 1,0 0,4 1,0 0,4 1,0 0,4 1,0 0,4 1,0 0,4 1,0 0,4 1,0 0,4 1,0 0,4 1,0 0,4 1,0 0,4 1,0 0,3 1,0 0,4 1,0 0,4 1,0 0,4 1,0 0,4 1,0 0,4 1,0 0,4 1,0 0,4 1,0 0,4 1,0 0,4 1,0 0,4 1,0 0,4 1,0 0,4 1,0 0,4 1,0 0,4 1,0 0,4 1,0 0,4 1,0 0,4 1,0 0,4 1,0 0,4 1,0 0,3 1,0 0,4 1,0 0,4 1,0 0,4 1,0 0,4 1,0 0,4 1,0 0,4 1,0 0,4 1,0 0,4 1,0 0,4 1,0 0,4 1,0 0,4 1,0 0,4 1,0 0,4 1,0 0,4 1,0 0,4 1,0 0,4 1,0 0,4 1,0 0,4 1,0 0,3 1,0 0,4 1,0 0,4 1,0 0,4 1,0 0,4 1,0 0,4 1,0 0,4 1,0 0,4 1,0 0,4 1,0 0,4 1,0 0,4 1,0 0,4 1,0 0,4 1,0 0,4 1,0 0,4 1,0 0,4 1,0 0,4 1,0 0,4 1,0 0,4 1,0 0,4 1,0 0,3 1,0 0,4 1,0 0,4 1,0 0,4 1,0 0,4 1,0 0,4 1,0 0,4 1,0 0,4 1,0 0,4 1,0 0,4 1,0 0,4 1,0 0,4 1,0 0,4 1,0 0,4 1,0 0,4 1,0 0,4 1,0 0,4 1,0 0,4 1,0 0,4 1,0 0,4 1,0 0,3 1,0 0,4 1,0 0,4 1,0 0,4 1,0 0,4 1,0 0,4 1,0 0,4 1,0 0,4 1,0 0,4 1,0 0,4 1,0 0,4 1,0 0,4 1,0 0,4 1,0 0,4 1,0 0,4 1,0 0,4 1,0 0,4 1,0 0,4 1,0 0,4 1,0 0,4 1,0 0,3 1,0 0,4 1,0 0,4 1,0 0,4 1,0 0,4 1,0 0,4 1,0 0,4 1,0 0,4 1,0 0,4 1,0 0,4 1,0 0,4 1,0 0,4 1,0 0,4 1,0 0,4 1,0 0,4 1,0 0,4 1,0 0,4 1,0 0,4 1,0 0,4 1,0 0,3 1,0 0,4 1,0 0,4 1,0 0,4 1,0 0,4 1,0 0,4 1,0 0,4 1,0 0,4 1,0 0,4 1,0 0,4 1,0 0,4 1,0 0,4 1,0 0,4 1,0 0,4 1,0 0,4 1,0 0,4 1,0 0,4 1,0 0,4 1,0 0,4 1,0 0,4 1,0 0,3 1,0 0,4 1,0 0,4 1,0 0,4 1,0 0,4 1,0 0,4 1,0 0,4 1,0 0,4 1,0 0,4 1,0 0,4 1,0 0,4 1,0 0,4 1,0 0,4 1,0 0,4 1,0 0,4 1,0 0,4 1,0 0,4 1,0 0,4 1,0 0,4 1,0 0,4 1,0 0,3 1,0 0,4 1,0 0,4 1,0 0,4 1,0 0,4 1,0 0,4 1,0 0,4 1,0 0,4 1,0 0,4 1,0 0,4 1,0 0,4 1,0 0,4 1,0 0,4 1,0 0,4 1,0 0,4 1,0 0,4 1,0 0,4 1,0 0,4 1,0 0,4 1,0 0,3 1,0 0,4 1,0 0,3 3,0 0,-1 4,0 0,-1 4,0 0,-1 4,0 0,-1 4,0 0,-1 4,0 0,-1 4,0 0,-1 4,0 0,-1 4,0 0,-1 4,0 0,-1 4,0 0,-1 4,0 0,-1 4,0 0,-1 4,0 0,-1 3,0 0,-1 4,0 0,-1 4,0 0,-1 4,0 0,-1 4,0 0,-1 4,0 0,-1 4,0 0,-1 4,0 0,-1 4,0 0,-1 4,0 0,-1 4,0 0,-1 4,0 0,-1 4,0 0,-1 4,0 0,-1 4,0 0,-1 4,0 0,-1 4,0 0,-1 4,0 0,-1 4,0 0,-1 4,0 0,-1 4,0 0,-1 4,0 0,-1 4,0 0,-1 4,0 0,-1 2,0 0,-3 -1,0 0,-4 -1,0 0,-4 -1,0 0,-4 -1,0 0,-4 -1,0 0,-4 -1,0 0,-4 -1,0 0,-4 -1,0 0,-4 -1,0 0,-3 -1,0 0,-4 -1,0 0,-4 -1,0 0,-4 -1,0 0,-4 -1,0 0,-4 -1,0 0,-4 -1,0 0,-4 -1,0 0,-4 -1,0 0,-4 -1,0 0,-4 -1,0 0,-4 -1,0 0,-4 -1,0 0,-4 -1,0 0,-4 -1,0 0,-4 -1,0 0,-4 -1,0 0,-4 -1,0 0,-4 -1,0 0,-4 -1,0 0,-3 -1,0 0,-4 -1,0 0,-4 -1,0 0,-4 -1,0 0,-4 -1,0 0,-4 -1,0 0,-4 -1,0 0,-4 -1,0 0,-4 -1,0 0,-4 -1,0 0,-4 -1,0 0,-4 -1,0 0,-4 -1,0 0,-4 -1,0 0,-4 -1,0 0,-4 -1,0 0,-4 -1,0 0,-4 -1,0 0,-4 -1,0 0,-4 -1,0 0,-3 -1,0 0,-4 -1,0 0,-4 -1,0 0,-4 -1,0 0,-4 -1,0 0,-4 -1,0 0,-4 -1,0 0,-4 -1,0 0,-4 -1,0 0,-4 -1,0 0,-4 -1,0 0,-4 -1,0 0,-4 -1,0 0,-4 -1,0 0,-4 -1,0 0,-4 -1,0 0,-4 -1,0 0,-4 -1,0 0,-4 -1,0 0,-4 -1,0 0,-3 -1,0 0,-4 -1,0 0,-4 -1,0 0,-4 -1,0 0,-4 -1,0 0,-4 -1,0 0,-4 -1,0 0,-4 -1,0 0,-4 -1,0 0,-4 -1,0 0,-4 -1,0 0,-4 -1,0 0,-4 -1,0 0,-4 -1,0 0,-4 -1,0 0,-4 -1,0 0,-4 -1,0 0,-4 -1,0 0,-4 -1,0 0,-4 -1,0 0,-3 -1,0 0,-4 -1,0 0,-4 -1,0 0,-4 -1,0 0,-4 -1,0 0,-4 -1,0 0,-4 -1,0 0,-4 -1,0 0,-4 -1,0 0,-4 -1,0 0,-4 -1,0 0,-4 -1,0 0,-4 -1,0 0,-4 -1,0 0,-4 -1,0 0,-4 -1,0 0,-4 -1,0 0,-4 -1,0 0,-4 -1,0 0,-3 -1,0 0,-4 -1,0 0,-4 -1,0 0,-4 -1,0 0,-4 -1,0 0,-4 -1,0 0,-4 -1,0 0,-4 -1,0 0,-4 -1,0 0,-4 -1,0 0,-4 -1,0 0,-4 -1,0 0,-4 -1,0 0,-4 -1,0 0,-4 -1,0 0,-4 -1,0 0,-4 -1,0 0,-4 -1,0 0,-4 -1,0 0,-4 -1,0 0,-3 -1,0 0,-4 -1,0 0,-4 -1,0 0,-4 -1,0 0,-4 -1,0 0,-4 -1,0 0,-4 -1,0 0,-4 -1,0 0,-4 -1,0 0,-4 -1,0 0,-4 -1,0 0,-4 -1,0 0,-4 -1,0 0,-4 -1,0 0,-4 -1,0 0,-4 -1,0 0,-4 -1,0 0,-4 -1,0 0,-4 -1,0 0,-4 -1,0 0,-3 -1,0 0,-4 -1,0 0,-4 -1,0 0,-4 -1,0 0,-4 -1,0 0,-4 -1,0 0,-4 -1,0 0,-4 -1,0 0,-4 -1,0 0,-4 -1,0 0,-4 -1,0 0,-4 -1,0 0,-4 -1,0 0,-4 -1,0 0,-4 -1,0 0,-4 -1,0 0,-4 -1,0 0,-4 -1,0 0,-4 -1,0 0,-4 -1,0 0,-3 -1,0 0,-4 -1,0 0,-4 -1,0 0,-4 -1,0 0,-4 -1,0 0,-4 -1,0 0,-4 -1,0 0,-4 -1,0 0,-4 -1,0 0,-4 -1,0 0,-4 -1,0 0,-4 -1,0 0,-4 -1,0 0,-4 -1,0 0,-4 -1,0 0,-4 -1,0 0,-4 -1,0 0,-4 -1,0 0,-4 -1,0 0,-4 -1,0 0,-3 -1,0 0,-4 -1,0 0,-4 -1,0 0,-4 -1,0 0,-4 -1,0 0,-4 -1,0 0,-4 -1,0 0,-4 -1,0 0,-4 -1,0 0,-4 -1,0 0,-4 -1,0 0,-4 -1,0 0,-4 -1,0 0,-4 -1,0 0,-4 -1,0 0,-4 -1,0 0,-4 -1,0 0,-4 -1,0 0,-4 -1,0 0,-4 -1,0 0,-3 -1,0 0,-4 -1,0 0,-4 -1,0 0,-4 -1,0 0,-4 -1,0 0,-4 -1,0 0,-4 -1,0 0,-4 -1,0 0,-4 -1,0 0,-4 -1,0 0,-4 -1,0 0,-4 -1,0 0,-4 -1,0 0,-4 -1,0 0,-4 -1,0 0,-4 -1,0 0,-4 -1,0 0,-4 -1,0 0,-4 -1,0 0,-3 -1,0 0,-4 -1,0 0,-4 -1,0 0,-4 -1,0 0,-4 -1,0 0,-4 -1,0 0,-4 -1,0 0,-4 -1,0 0,-4 -1,0 0,-4 -1,0 0,-4 -1,0 0,-4 -1,0 0,-4 -1,0 0,-4 -1,0 0,-4 -1,0 0,-4 -1,0 0,-4 -1,0 0,-4 -1,0 0,-4 -1,0 0,-4 -1,0 0,-3 -1,0 0,-4 -1,0 0,-4 -1,0 0,-4 -1,0 0,-4 -1,0 0,-4 -1,0 0,-4 -1,0 0,-4 -1,0 0,-4 -1,0 0,-4 -1,0 0,-4 -1,0 0,-4 -1,0 0,-4 -1,0 0,-4 -1,0 0,-4 -1,0 0,-4 -1,0 0,-4 -1,0 0,-4 -1,0 0,-4 -1,0 0,-4 -1,0 0,-3 -1,0 0,-4 -1,0 0,-4 -1,0 0,-4 -1,0 0,-2"
             style="fill:url(#linearGradient28);fill-opacity:1;fill-rule:nonzero;stroke:none"
             id="path46"
             inkscape:connector-curvature="0" /></g></g></g><g
       id="g48"><g
         id="g50"
         clip-path="url(#clipPath52)"><path
           d="m 1821.38,56.6914 8.83,34.8906 -115.92,29.348 332.41,1312.84 81.02,-20.47 -341.24,-1347.7805 34.9,-8.8281 8.83,34.8906 -8.83,-34.8906 34.89,-8.8398 350.09,1382.6884 c 2.36,9.33 0.94,19.02 -3.98,27.28 -4.93,8.26 -12.78,14.11 -22.1,16.47 l -150.82,38.1 c -19.28,4.87 -38.84,-6.79 -43.72,-26.07 L 1635.66,103.711 c -2.33,-9.1915 -0.88,-19.1212 3.97,-27.2696 4.85,-8.1406 12.9,-14.1406 22.09,-16.4726 l 150.82,-38.1797 c 9.19,-2.3282 19.12,-0.8789 27.26,3.9726 8.15,4.8477 14.15,12.8985 16.47,22.0899 l -34.89,8.8398"
           style="fill:#231f20;fill-opacity:1;fill-rule:nonzero;stroke:none"
           id="path56"
           inkscape:connector-curvature="0" /></g></g><g
       id="g58"><g
         id="g60"
         clip-path="url(#clipPath62)"><g
           id="g66"
           clip-path="url(#clipPath68)"><path
             d="m 2564,369 0,27 -1,0 0,32 -1,0 0,32 -1,0 0,31 -1,0 0,32 -1,0 0,32 -1,0 0,32 -1,0 0,32 -1,0 0,32 -1,0 0,31 -1,0 0,32 -1,0 0,32 -1,0 0,32 -1,0 0,32 -1,0 0,32 -1,0 0,31 -1,0 0,32 -1,0 0,32 -1,0 0,32 -1,0 0,32 -1,0 0,32 -1,0 0,31 -1,0 0,32 -1,0 0,32 -1,0 0,32 -1,0 0,32 -1,0 0,32 -1,0 0,31 -1,0 0,32 -1,0 0,32 -1,0 0,24 11,0 0,1 32,0 0,1 32,0 0,1 31,0 0,1 32,0 0,1 18,0 0,-11 1,0 0,-31 1,0 0,-32 1,0 0,-32 1,0 0,-32 1,0 0,-31 1,0 0,-32 1,0 0,-32 1,0 0,-32 1,0 0,-31 1,0 0,-32 1,0 0,-32 1,0 0,-31 1,0 0,-32 1,0 0,-32 1,0 0,-32 1,0 0,-31 1,0 0,-32 1,0 0,-32 1,0 0,-32 1,0 0,-31 1,0 0,-32 1,0 0,-32 1,0 0,-32 1,0 0,-31 1,0 0,-32 1,0 0,-32 1,0 0,-31 1,0 0,-32 1,0 0,-32 1,0 0,-32 1,0 0,-16"
             style="fill:url(#linearGradient72);fill-opacity:1;fill-rule:nonzero;stroke:none"
             id="path90"
             inkscape:connector-curvature="0" /></g></g></g><g
       id="g92"><g
         id="g94"
         clip-path="url(#clipPath96)"><path
           d="m 2734.59,-78.0313 -1.14,35.9805 -119.54,-3.7773 -42.53,1353.6181 83.43,2.64 43.8,-1389.5902 35.98,1.1289 -1.14,35.9805 1.14,-35.9805 35.98,1.1329 -44.93,1425.5884 c -0.3,9.48 -4.43,18.62 -11.34,25.11 -6.91,6.49 -16.3,10.04 -25.78,9.74 l -155.39,-4.92 c -19.87,-0.63 -35.47,-17.25 -34.84,-37.12 l 44.79,-1425.5781 c 0.3,-9.6211 4.33,-18.5309 11.34,-25.1209 7.01,-6.582 16.17,-10.039 25.78,-9.742 l 155.53,4.929 c 19.87,0.633 35.47,17.2425 34.84,37.1136 l -35.98,-1.1329"
           style="fill:#231f20;fill-opacity:1;fill-rule:nonzero;stroke:none"
           id="path100"
           inkscape:connector-curvature="0" /></g></g><g
       id="g102"><g
         id="g104"
         clip-path="url(#clipPath106)"><g
           id="g110"
           clip-path="url(#clipPath112)"><path
             d="m 3448,369 0,3 -1,0 0,3 -1,0 0,3 -1,0 0,3 -1,0 0,3 -1,0 0,3 -1,0 0,3 -1,0 0,2 -1,0 0,3 -1,0 0,3 -1,0 0,3 -1,0 0,3 -1,0 0,3 -1,0 0,3 -1,0 0,3 -1,0 0,3 -1,0 0,2 -1,0 0,3 -1,0 0,3 -1,0 0,3 -1,0 0,3 -1,0 0,3 -1,0 0,3 -1,0 0,3 -1,0 0,3 -1,0 0,3 -1,0 0,2 -1,0 0,3 -1,0 0,3 -1,0 0,3 -1,0 0,3 -1,0 0,3 -1,0 0,3 -1,0 0,3 -1,0 0,3 -1,0 0,2 -1,0 0,3 -1,0 0,3 -1,0 0,3 -1,0 0,3 -1,0 0,3 -1,0 0,3 -1,0 0,3 -1,0 0,3 -1,0 0,3 -1,0 0,2 -1,0 0,3 -1,0 0,3 -1,0 0,3 -1,0 0,3 -1,0 0,3 -1,0 0,3 -1,0 0,3 -1,0 0,3 -1,0 0,2 -1,0 0,3 -1,0 0,3 -1,0 0,3 -1,0 0,3 -1,0 0,3 -1,0 0,3 -1,0 0,3 -1,0 0,3 -1,0 0,3 -1,0 0,2 -1,0 0,3 -1,0 0,3 -1,0 0,3 -1,0 0,3 -1,0 0,3 -1,0 0,3 -1,0 0,3 -1,0 0,3 -1,0 0,2 -1,0 0,3 -1,0 0,3 -1,0 0,3 -1,0 0,3 -1,0 0,3 -1,0 0,3 -1,0 0,3 -1,0 0,3 -1,0 0,2 -1,0 0,3 -1,0 0,3 -1,0 0,3 -1,0 0,3 -1,0 0,3 -1,0 0,3 -1,0 0,3 -1,0 0,3 -1,0 0,3 -1,0 0,2 -1,0 0,3 -1,0 0,3 -1,0 0,3 -1,0 0,3 -1,0 0,3 -1,0 0,3 -1,0 0,3 -1,0 0,3 -1,0 0,2 -1,0 0,3 -1,0 0,3 -1,0 0,3 -1,0 0,3 -1,0 0,3 -1,0 0,3 -1,0 0,3 -1,0 0,3 -1,0 0,3 -1,0 0,2 -1,0 0,3 -1,0 0,3 -1,0 0,3 -1,0 0,3 -1,0 0,3 -1,0 0,3 -1,0 0,3 -1,0 0,3 -1,0 0,2 -1,0 0,3 -1,0 0,3 -1,0 0,3 -1,0 0,3 -1,0 0,3 -1,0 0,3 -1,0 0,3 -1,0 0,3 -1,0 0,3 -1,0 0,2 -1,0 0,3 -1,0 0,3 -1,0 0,3 -1,0 0,3 -1,0 0,3 -1,0 0,3 -1,0 0,3 -1,0 0,3 -1,0 0,2 -1,0 0,3 -1,0 0,3 -1,0 0,3 -1,0 0,3 -1,0 0,3 -1,0 0,3 -1,0 0,3 -1,0 0,3 -1,0 0,3 -1,0 0,2 -1,0 0,3 -1,0 0,3 -1,0 0,3 -1,0 0,3 -1,0 0,3 -1,0 0,3 -1,0 0,3 -1,0 0,3 -1,0 0,2 -1,0 0,3 -1,0 0,3 -1,0 0,3 -1,0 0,3 -1,0 0,3 -1,0 0,3 -1,0 0,3 -1,0 0,3 -1,0 0,3 -1,0 0,2 -1,0 0,3 -1,0 0,3 -1,0 0,3 -1,0 0,3 -1,0 0,3 -1,0 0,3 -1,0 0,3 -1,0 0,3 -1,0 0,2 -1,0 0,3 -1,0 0,3 -1,0 0,3 -1,0 0,3 -1,0 0,3 -1,0 0,3 -1,0 0,3 -1,0 0,3 -1,0 0,2 -1,0 0,3 -1,0 0,3 -1,0 0,3 -1,0 0,3 -1,0 0,3 -1,0 0,3 -1,0 0,3 -1,0 0,3 -1,0 0,3 -1,0 0,2 -1,0 0,3 -1,0 0,3 -1,0 0,3 -1,0 0,3 -1,0 0,3 -1,0 0,3 -1,0 0,3 -1,0 0,3 -1,0 0,2 -1,0 0,3 -1,0 0,3 -1,0 0,3 -1,0 0,3 -1,0 0,3 -1,0 0,3 -1,0 0,3 -1,0 0,3 -1,0 0,3 -1,0 0,2 -1,0 0,3 -1,0 0,3 -1,0 0,3 -1,0 0,3 -1,0 0,3 -1,0 0,3 -1,0 0,3 -1,0 0,3 -1,0 0,2 -1,0 0,3 -1,0 0,3 -1,0 0,3 -1,0 0,3 -1,0 0,3 -1,0 0,3 -1,0 0,3 -1,0 0,3 -1,0 0,3 -1,0 0,2 -1,0 0,3 -1,0 0,3 -1,0 0,3 -1,0 0,3 -1,0 0,3 -1,0 0,3 -1,0 0,3 -1,0 0,3 -1,0 0,2 -1,0 0,3 -1,0 0,3 -1,0 0,3 -1,0 0,3 -1,0 0,3 -1,0 0,3 -1,0 0,3 -1,0 0,3 -1,0 0,3 -1,0 0,2 -1,0 0,3 -1,0 0,3 -1,0 0,3 -1,0 0,3 -1,0 0,3 -1,0 0,3 -1,0 0,3 -1,0 0,3 -1,0 0,2 -1,0 0,3 -1,0 0,3 -1,0 0,3 -1,0 0,3 -1,0 0,3 -1,0 0,3 -1,0 0,3 -1,0 0,3 -1,0 0,2 -1,0 0,3 -1,0 0,3 -1,0 0,3 -1,0 0,3 -1,0 0,3 -1,0 0,3 -1,0 0,3 -1,0 0,3 -1,0 0,3 -1,0 0,2 -1,0 0,3 -1,0 0,3 -1,0 0,3 -1,0 0,3 -1,0 0,3 -1,0 0,3 -1,0 0,3 -1,0 0,3 -1,0 0,2 -1,0 0,3 -1,0 0,3 -1,0 0,3 -1,0 0,3 -1,0 0,3 -1,0 0,3 -1,0 0,3 -1,0 0,3 -1,0 0,3 -1,0 0,2 -1,0 0,3 -1,0 0,3 -1,0 0,3 -1,0 0,3 -1,0 0,3 -1,0 0,3 -1,0 0,3 -1,0 0,3 -1,0 0,2 -1,0 0,3 -1,0 0,3 -1,0 0,3 -1,0 0,3 -1,0 0,3 -1,0 0,3 -1,0 0,3 -1,0 0,3 -1,0 0,3 -1,0 0,2 -1,0 0,3 -1,0 0,3 -1,0 0,3 -1,0 0,3 -1,0 0,3 -1,0 0,3 -1,0 0,3 -1,0 0,3 -1,0 0,2 -1,0 0,3 -1,0 0,3 -1,0 0,3 -1,0 0,3 -1,0 0,3 -1,0 0,3 -1,0 0,3 -1,0 0,3 -1,0 0,3 -1,0 0,2 -1,0 0,3 -1,0 0,3 -1,0 0,3 -1,0 0,4 3,0 0,1 3,0 0,1 3,0 0,1 3,0 0,1 3,0 0,1 2,0 0,1 3,0 0,1 3,0 0,1 3,0 0,1 3,0 0,1 3,0 0,1 3,0 0,1 3,0 0,1 3,0 0,1 3,0 0,1 2,0 0,1 3,0 0,1 3,0 0,1 3,0 0,1 3,0 0,1 3,0 0,1 3,0 0,1 3,0 0,1 3,0 0,1 3,0 0,1 2,0 0,1 3,0 0,1 3,0 0,1 3,0 0,1 3,0 0,1 3,0 0,1 3,0 0,1 3,0 0,1 3,0 0,1 3,0 0,1 2,0 0,1 3,0 0,1 3,0 0,1 3,0 0,1 3,0 0,1 3,0 0,1 3,0 0,1 3,0 0,1 3,0 0,1 3,0 0,1 2,0 0,1 3,0 0,1 3,0 0,1 3,0 0,1 3,0 0,1 3,0 0,-2 1,0 0,-3 1,0 0,-3 1,0 0,-3 1,0 0,-3 1,0 0,-2 1,0 0,-3 1,0 0,-3 1,0 0,-3 1,0 0,-3 1,0 0,-3 1,0 0,-3 1,0 0,-3 1,0 0,-3 1,0 0,-2 1,0 0,-3 1,0 0,-3 1,0 0,-3 1,0 0,-3 1,0 0,-3 1,0 0,-3 1,0 0,-3 1,0 0,-3 1,0 0,-3 1,0 0,-2 1,0 0,-3 1,0 0,-3 1,0 0,-3 1,0 0,-3 1,0 0,-3 1,0 0,-3 1,0 0,-3 1,0 0,-3 1,0 0,-2 1,0 0,-3 1,0 0,-3 1,0 0,-3 1,0 0,-3 1,0 0,-3 1,0 0,-3 1,0 0,-3 1,0 0,-3 1,0 0,-3 1,0 0,-2 1,0 0,-3 1,0 0,-3 1,0 0,-3 1,0 0,-3 1,0 0,-3 1,0 0,-3 1,0 0,-3 1,0 0,-3 1,0 0,-2 1,0 0,-3 1,0 0,-3 1,0 0,-3 1,0 0,-3 1,0 0,-3 1,0 0,-3 1,0 0,-3 1,0 0,-3 1,0 0,-3 1,0 0,-2 1,0 0,-3 1,0 0,-3 1,0 0,-3 1,0 0,-3 1,0 0,-3 1,0 0,-3 1,0 0,-3 1,0 0,-3 1,0 0,-2 1,0 0,-3 1,0 0,-3 1,0 0,-3 1,0 0,-3 1,0 0,-3 1,0 0,-3 1,0 0,-3 1,0 0,-3 1,0 0,-3 1,0 0,-2 1,0 0,-3 1,0 0,-3 1,0 0,-3 1,0 0,-3 1,0 0,-3 1,0 0,-3 1,0 0,-3 1,0 0,-3 1,0 0,-2 1,0 0,-3 1,0 0,-3 1,0 0,-3 1,0 0,-3 1,0 0,-3 1,0 0,-3 1,0 0,-3 1,0 0,-3 1,0 0,-3 1,0 0,-2 1,0 0,-3 1,0 0,-3 1,0 0,-3 1,0 0,-3 1,0 0,-3 1,0 0,-3 1,0 0,-3 1,0 0,-3 1,0 0,-2 1,0 0,-3 1,0 0,-3 1,0 0,-3 1,0 0,-3 1,0 0,-3 1,0 0,-3 1,0 0,-3 1,0 0,-3 1,0 0,-3 1,0 0,-2 1,0 0,-3 1,0 0,-3 1,0 0,-3 1,0 0,-3 1,0 0,-3 1,0 0,-3 1,0 0,-3 1,0 0,-3 1,0 0,-2 1,0 0,-3 1,0 0,-3 1,0 0,-3 1,0 0,-3 1,0 0,-3 1,0 0,-3 1,0 0,-3 1,0 0,-3 1,0 0,-3 1,0 0,-2 1,0 0,-3 1,0 0,-3 1,0 0,-3 1,0 0,-3 1,0 0,-3 1,0 0,-3 1,0 0,-3 1,0 0,-3 1,0 0,-2 1,0 0,-3 1,0 0,-3 1,0 0,-3 1,0 0,-3 1,0 0,-3 1,0 0,-3 1,0 0,-3 1,0 0,-3 1,0 0,-3 1,0 0,-2 1,0 0,-3 1,0 0,-3 1,0 0,-3 1,0 0,-3 1,0 0,-3 1,0 0,-3 1,0 0,-3 1,0 0,-3 1,0 0,-2 1,0 0,-3 1,0 0,-3 1,0 0,-3 1,0 0,-3 1,0 0,-3 1,0 0,-3 1,0 0,-3 1,0 0,-3 1,0 0,-3 1,0 0,-2 1,0 0,-3 1,0 0,-3 1,0 0,-3 1,0 0,-3 1,0 0,-3 1,0 0,-3 1,0 0,-3 1,0 0,-3 1,0 0,-2 1,0 0,-3 1,0 0,-3 1,0 0,-3 1,0 0,-3 1,0 0,-3 1,0 0,-3 1,0 0,-3 1,0 0,-3 1,0 0,-3 1,0 0,-2 1,0 0,-3 1,0 0,-3 1,0 0,-3 1,0 0,-3 1,0 0,-3 1,0 0,-3 1,0 0,-3 1,0 0,-3 1,0 0,-2 1,0 0,-3 1,0 0,-3 1,0 0,-3 1,0 0,-3 1,0 0,-3 1,0 0,-3 1,0 0,-3 1,0 0,-3 1,0 0,-3 1,0 0,-2 1,0 0,-3 1,0 0,-3 1,0 0,-3 1,0 0,-3 1,0 0,-3 1,0 0,-3 1,0 0,-3 1,0 0,-3 1,0 0,-2 1,0 0,-3 1,0 0,-3 1,0 0,-3 1,0 0,-3 1,0 0,-3 1,0 0,-3 1,0 0,-3 1,0 0,-3 1,0 0,-3 1,0 0,-2 1,0 0,-3 1,0 0,-3 1,0 0,-3 1,0 0,-3 1,0 0,-3 1,0 0,-3 1,0 0,-3 1,0 0,-3 1,0 0,-2 1,0 0,-3 1,0 0,-3 1,0 0,-3 1,0 0,-3 1,0 0,-3 1,0 0,-3 1,0 0,-3 1,0 0,-3 1,0 0,-3 1,0 0,-2 1,0 0,-3 1,0 0,-3 1,0 0,-3 1,0 0,-3 1,0 0,-3 1,0 0,-3 1,0 0,-3 1,0 0,-3 1,0 0,-2 1,0 0,-3 1,0 0,-3 1,0 0,-3 1,0 0,-3 1,0 0,-3 1,0 0,-3 1,0 0,-3 1,0 0,-3 1,0 0,-3 1,0 0,-2 1,0 0,-3 1,0 0,-3 1,0 0,-3 1,0 0,-3 1,0 0,-3 1,0 0,-3 1,0 0,-3 1,0 0,-3 1,0 0,-2 1,0 0,-3 1,0 0,-3 1,0 0,-3 1,0 0,-3 1,0 0,-3 1,0 0,-3 1,0 0,-3 1,0 0,-3 1,0 0,-3 1,0 0,-2 1,0 0,-3 1,0 0,-3 1,0 0,-3 1,0 0,-3 1,0 0,-3 1,0 0,-3 1,0 0,-3 1,0 0,-3 1,0 0,-2 1,0 0,-3 1,0 0,-3 1,0 0,-3 1,0 0,-3 1,0 0,-3 1,0 0,-3 1,0 0,-3 1,0 0,-3 1,0 0,-3 1,0 0,-2 1,0 0,-3 1,0 0,-3 1,0 0,-3 1,0 0,-3 1,0 0,-3 1,0 0,-3 1,0 0,-3 1,0 0,-3 1,0 0,-2 1,0 0,-3 1,0 0,-3 1,0 0,-3 1,0 0,-3 1,0 0,-3 1,0 0,-3 1,0 0,-3 1,0 0,-3 1,0 0,-3 1,0 0,-2 1,0 0,-3 1,0 0,-3 1,0 0,-3 1,0 0,-3 1,0 0,-3 1,0 0,-3 1,0 0,-3 1,0 0,-3 1,0 0,-2 1,0 0,-3 1,0 0,-3 1,0 0,-3 1,0 0,-3 1,0 0,-3 1,0 0,-3 1,0 0,-3 1,0 0,-3 1,0 0,-3 1,0 0,-2 1,0 0,-3 1,0 0,-3 1,0 0,-3 1,0 0,-3 1,0 0,-3 1,0 0,-3 1,0 0,-3 1,0 0,-3 1,0 0,-2 1,0 0,-3 1,0 0,-3 1,0 0,-3 1,0 0,-3"
             style="fill:url(#linearGradient116);fill-opacity:1;fill-rule:nonzero;stroke:none"
             id="path134"
             inkscape:connector-curvature="0" /></g></g></g><g
       id="g136"><g
         id="g138"
         clip-path="url(#clipPath140)"><path
           d="m 3719.04,64.4219 -11.74,34.039 -113.01,-38.9687 -442.3,1280.1178 79.02,27.23 454,-1314.1681 34.03,11.75 -11.74,34.039 11.74,-34.039 34.02,11.75 -465.74,1348.1781 c -6.5,18.79 -26.96,28.76 -45.76,22.28 l -147.09,-50.69 c -9.1,-3.14 -16.43,-9.63 -20.64,-18.28 -4.21,-8.65 -4.8,-18.42 -1.66,-27.52 L 3537.99,1.96875 c 6.49,-18.78905 26.96,-28.75785 45.76,-22.27735 l 147.02,50.6992 c 9.09,3.1289 16.42,9.6289 20.63,18.2696 4.21,8.6484 4.8,18.4296 1.66,27.5117 l -34.02,-11.75"
           style="fill:#231f20;fill-opacity:1;fill-rule:nonzero;stroke:none"
           id="path144"
           inkscape:connector-curvature="0" /><path
           d="m 2663.08,1641.04 -648.77,0 0,-237.8 30.38,0 c 82.82,-73.68 327.86,-127.34 617.27,-127.34 289.55,0 534.38,53.66 617.41,127.34 l 30.17,0 0,237.8 -646.46,0"
           style="fill:#d3d2d2;fill-opacity:1;fill-rule:nonzero;stroke:none"
           id="path146"
           inkscape:connector-curvature="0" /><path
           d="m 2663.08,1641.04 0,36 -648.77,0 c -9.48,0 -18.75,-3.84 -25.46,-10.54 -6.7,-6.71 -10.54,-15.98 -10.54,-25.46 l 0,-237.8 c 0,-9.48 3.84,-18.75 10.54,-25.46 6.71,-6.7 15.98,-10.54 25.46,-10.54 l 30.38,0 0,36 -23.93,-26.9 c 25.7,-22.72 59.82,-41.13 101.45,-57.58 62.4,-24.5 141.98,-43.96 233.82,-57.6 91.8,-13.61 195.73,-21.25 305.93,-21.25 147.02,0.01 282.74,13.56 393.54,36.8 55.43,11.64 104.63,25.69 146.26,42.05 41.63,16.45 75.77,34.86 101.51,57.55 l -23.9,26.93 0,-36 30.17,0 c 9.48,0 18.75,3.84 25.45,10.54 6.71,6.71 10.55,15.98 10.55,25.46 l 0,237.8 c 0,9.48 -3.84,18.75 -10.54,25.46 -6.71,6.7 -15.98,10.54 -25.46,10.54 l -646.46,0 0,-72 610.46,0 0,-201.8 36,0 0,36 -30.17,0 c -8.77,0 -17.33,-3.25 -23.89,-9.07 -15.78,-14.15 -43.39,-30.08 -80.06,-44.41 -55.04,-21.67 -130.21,-40.39 -218.04,-53.38 -87.86,-13.03 -188.51,-20.48 -295.42,-20.48 -142.46,-0.01 -273.94,13.27 -378.71,35.27 -52.36,10.98 -98.04,24.16 -134.7,38.59 -36.65,14.33 -64.23,30.26 -79.94,44.38 -6.55,5.83 -15.16,9.1 -23.92,9.1 l -30.38,0 0,-36 36,0 0,201.8 612.77,0 0,36"
           style="fill:#231f20;fill-opacity:1;fill-rule:nonzero;stroke:none"
           id="path148"
           inkscape:connector-curvature="0" /><path
           d="m 3309.54,1641.04 c 0,-100.98 -289.97,-182.61 -647.58,-182.61 -357.68,0 -647.65,81.63 -647.65,182.61 0,100.68 289.97,182.31 647.65,182.31 357.61,0 647.58,-81.63 647.58,-182.31"
           style="fill:#d3d2d2;fill-opacity:1;fill-rule:nonzero;stroke:none"
           id="path150"
           inkscape:connector-curvature="0" /><path
           d="m 3309.54,1641.04 -36,0 c -0.01,-1.99 -0.32,-3.96 -1.22,-6.5 -1.64,-4.68 -5.88,-11.57 -14.35,-19.57 -14.66,-14.08 -41.61,-30.35 -78.04,-44.97 -54.67,-22.13 -130.28,-41.31 -218.97,-54.6 -88.74,-13.34 -190.68,-20.97 -299,-20.97 -176.03,-0.05 -335.48,20.27 -448.19,52.09 -56.27,15.78 -100.84,34.72 -128.59,53.34 -13.9,9.23 -23.41,18.28 -28.57,25.48 -2.61,3.6 -4.18,6.68 -5.08,9.2 -0.9,2.54 -1.21,4.51 -1.22,6.5 0.01,1.97 0.31,3.9 1.21,6.42 1.63,4.64 5.86,11.51 14.33,19.5 14.66,14.05 41.62,30.29 78.06,44.89 54.67,22.11 130.3,41.27 219,54.55 88.75,13.33 190.71,20.96 299.05,20.96 176,0.05 335.43,-20.26 448.14,-52.06 56.27,-15.76 100.84,-34.67 128.6,-53.27 13.9,-9.2 23.41,-18.25 28.56,-25.42 2.61,-3.58 4.17,-6.65 5.07,-9.15 0.9,-2.52 1.2,-4.45 1.21,-6.42 l 72,0 c 0.01,10.62 -1.96,21.12 -5.48,30.86 -6.66,18.34 -18.3,33.83 -32.57,47.36 -25.14,23.6 -59.01,42.47 -100.6,59.36 -62.36,25.12 -142.46,45.02 -235.24,58.99 -92.73,13.92 -197.99,21.74 -309.69,21.75 -181.65,-0.06 -346.02,-20.56 -467.71,-54.75 -60.93,-17.23 -111.2,-37.61 -148.99,-62.64 -18.87,-12.6 -34.81,-26.45 -46.91,-43.02 -6.02,-8.28 -11.04,-17.29 -14.56,-27.05 -3.53,-9.74 -5.49,-20.23 -5.48,-30.86 -0.01,-10.63 1.95,-21.13 5.47,-30.88 6.65,-18.37 18.29,-33.88 32.56,-47.44 25.13,-23.66 59.01,-42.56 100.61,-59.47 62.37,-25.16 142.48,-45.08 235.27,-59.06 92.74,-13.93 198.02,-21.75 309.74,-21.76 181.61,0.06 345.97,20.56 467.66,54.79 60.93,17.25 111.2,37.66 149,62.74 18.87,12.63 34.81,26.51 46.9,43.11 6.02,8.3 11.03,17.32 14.55,27.09 3.52,9.75 5.48,20.25 5.47,30.88 l -36,0"
           style="fill:#231f20;fill-opacity:1;fill-rule:nonzero;stroke:none"
           id="path152"
           inkscape:connector-curvature="0" /></g></g><g
       id="g154"><g
         id="g156"
         clip-path="url(#clipPath158)"><path
           d="m 3189.02,1968.7 -1093.01,0 0,-225.57 3.31,0 c -2.11,-5.06 -3.31,-10.41 -3.31,-15.75 0,-80.23 244.55,-145.13 546.54,-145.13 301.78,0 546.47,64.9 546.47,145.13 0,5.34 -1.26,10.69 -3.3,15.75 l 3.3,0 0,225.57"
           style="fill:url(#linearGradient162);fill-opacity:1;fill-rule:nonzero;stroke:none"
           id="path168"
           inkscape:connector-curvature="0" /></g></g><g
       id="g170"><g
         id="g172"
         clip-path="url(#clipPath174)"><path
           d="m 3189.02,1968.7 0,36 -1093.01,0 c -9.48,0 -18.75,-3.84 -25.45,-10.55 -6.71,-6.7 -10.55,-15.97 -10.55,-25.45 l 0,-225.57 c 0,-9.48 3.84,-18.75 10.55,-25.45 6.7,-6.71 15.97,-10.55 25.45,-10.55 l 3.31,0 0,36 -33.23,13.86 c -3.71,-8.91 -6.07,-18.87 -6.08,-29.61 -0.01,-9.6 1.88,-19.07 5.19,-27.7 6.27,-16.26 16.89,-29.37 29.43,-40.62 22.13,-19.59 51.11,-34.71 86.53,-48.3 53.08,-20.16 120.89,-36.02 199.41,-47.17 78.47,-11.1 167.49,-17.33 261.98,-17.34 153.54,0.05 292.46,16.36 395.64,43.69 51.68,13.79 94.4,30.06 127.03,50.43 16.3,10.28 30.28,21.65 41.22,35.77 5.44,7.07 10.08,14.89 13.39,23.54 3.31,8.62 5.21,18.1 5.19,27.7 -0.02,11.06 -2.54,20.8 -5.92,29.22 l -33.38,-13.47 0,-36 3.3,0 c 9.48,0 18.75,3.84 25.46,10.55 6.7,6.7 10.54,15.97 10.54,25.45 l 0,225.57 c 0,9.48 -3.84,18.75 -10.54,25.45 -6.71,6.71 -15.98,10.55 -25.46,10.55 l 0,-36 -36,0 0,-225.57 36,0 0,36 -3.3,0 c -11.92,0 -23.18,-5.98 -29.84,-15.86 -6.67,-9.88 -8.01,-22.56 -3.55,-33.61 l 0.62,-1.92 0.07,-0.4 0,-0.03 1.27,0.07 -1.27,0 0,-0.07 1.27,0.07 -1.27,0 c -0.01,-0.43 -0.03,-0.86 -0.45,-2 -0.72,-2.04 -3.5,-6.73 -10.14,-12.62 -11.45,-10.41 -33.78,-23.24 -64.2,-34.71 -45.67,-17.42 -109.26,-32.64 -183.89,-43.17 -74.68,-10.58 -160.55,-16.63 -251.79,-16.63 -148.35,-0.05 -282.68,16.1 -377.28,41.28 -47.21,12.45 -84.5,27.46 -107.18,41.81 -11.35,7.09 -18.84,13.95 -22.45,18.73 -1.84,2.39 -2.75,4.19 -3.18,5.3 -0.42,1.15 -0.43,1.58 -0.45,2.01 l 0.07,0.47 0.47,1.42 c 4.63,11.11 3.4,23.81 -3.27,33.83 -6.68,10.01 -17.92,16.03 -29.96,16.03 l -3.31,0 0,-36 36,0 0,189.57 1057.01,0 0,36 -36,0 36,0"
           style="fill:#231f20;fill-opacity:1;fill-rule:nonzero;stroke:none"
           id="path178"
           inkscape:connector-curvature="0" /><path
           d="m 3189.02,1968.7 c 0,-80.31 -244.69,-145.35 -546.47,-145.35 -301.99,0 -546.54,65.04 -546.54,145.35 0,80.15 244.55,144.98 546.54,144.98 301.78,0 546.47,-64.83 546.47,-144.98"
           style="fill:#393536;fill-opacity:1;fill-rule:nonzero;stroke:none"
           id="path180"
           inkscape:connector-curvature="0" /><path
           d="m 3189.02,1968.7 -36,0 c -0.01,-0.44 -0.03,-0.88 -0.45,-2.03 -0.73,-2.06 -3.51,-6.76 -10.16,-12.66 -11.45,-10.42 -33.78,-23.27 -64.2,-34.75 -45.67,-17.45 -109.25,-32.69 -183.88,-43.25 -74.68,-10.59 -160.54,-16.66 -251.78,-16.65 -148.34,-0.05 -282.67,16.13 -377.26,41.34 -47.21,12.48 -84.51,27.51 -107.18,41.88 -11.35,7.1 -18.84,13.97 -22.46,18.76 -1.84,2.4 -2.76,4.2 -3.18,5.33 -0.43,1.15 -0.44,1.59 -0.46,2.03 0.02,0.42 0.03,0.84 0.45,1.98 0.72,2.03 3.49,6.72 10.13,12.6 11.44,10.39 33.76,23.21 64.17,34.66 45.66,17.41 109.24,32.61 183.89,43.13 74.69,10.57 160.59,16.61 251.9,16.61 148.25,0.05 282.56,-16.08 377.18,-41.23 47.21,-12.44 84.53,-27.44 107.21,-41.78 11.36,-7.07 18.85,-13.93 22.47,-18.71 1.84,-2.38 2.74,-4.18 3.17,-5.29 0.41,-1.13 0.43,-1.55 0.44,-1.97 l 72,0 c 0.02,9.6 -1.88,19.08 -5.2,27.7 -6.27,16.26 -16.89,29.36 -29.44,40.6 -22.14,19.57 -51.13,34.67 -86.55,48.24 -53.09,20.15 -120.91,35.99 -199.41,47.12 -78.45,11.09 -167.44,17.32 -261.87,17.32 -153.64,-0.05 -292.58,-16.33 -395.74,-43.64 -51.68,-13.78 -94.39,-30.02 -127,-50.38 -16.3,-10.27 -30.27,-21.63 -41.22,-35.74 -5.43,-7.07 -10.08,-14.88 -13.38,-23.53 -3.31,-8.62 -5.21,-18.09 -5.2,-27.69 -0.01,-9.6 1.88,-19.08 5.19,-27.7 6.26,-16.27 16.87,-29.4 29.41,-40.66 22.13,-19.6 51.12,-34.75 86.53,-48.36 53.08,-20.19 120.9,-36.09 199.42,-47.25 78.47,-11.13 167.5,-17.37 261.99,-17.37 153.55,0.05 292.47,16.38 395.66,43.76 51.68,13.82 94.4,30.11 127.03,50.52 16.29,10.29 30.27,21.67 41.21,35.81 5.44,7.07 10.08,14.89 13.38,23.54 3.31,8.63 5.21,18.1 5.19,27.71 l -36,0"
           style="fill:#231f20;fill-opacity:1;fill-rule:nonzero;stroke:none"
           id="path182"
           inkscape:connector-curvature="0" /><path
           d="m 2138.84,2629.84 c 0,0 171.28,-108.99 186.74,-202.22 l 0,-315 676.76,0 23.27,256.99 c 0,0 -7.8,159.05 93.45,170.86 l 190.48,0 112.92,89.37 -1283.62,0"
           style="fill:#231f20;fill-opacity:1;fill-rule:nonzero;stroke:none"
           id="path184"
           inkscape:connector-curvature="0" /></g></g><g
       id="g186"><g
         id="g188"
         clip-path="url(#clipPath190)"><path
           d="m 3073.07,2203.26 c 0,-175.43 -142.24,-317.68 -317.67,-317.68 -175.49,0 -317.67,142.25 -317.67,317.68 0,175.5 142.18,317.59 317.67,317.59 175.43,0 317.67,-142.09 317.67,-317.59"
           style="fill:url(#radialGradient194);fill-opacity:1;fill-rule:nonzero;stroke:none"
           id="path206"
           inkscape:connector-curvature="0" /></g></g><g
       id="g208"><g
         id="g210"
         clip-path="url(#clipPath212)"><path
           d="m 3073.07,2203.26 -36,0 c -0.01,-77.89 -31.47,-148.08 -82.5,-199.17 -51.09,-51.03 -121.28,-82.49 -199.17,-82.51 -77.92,0.02 -148.11,31.48 -199.19,82.51 -51.02,51.09 -82.46,121.28 -82.48,199.17 0.02,77.93 31.46,148.09 82.48,199.15 51.07,51 121.26,82.43 199.19,82.45 77.9,-0.02 148.09,-31.45 199.18,-82.45 51.02,-51.06 82.48,-121.23 82.49,-199.15 l 72,0 c 0.02,97.57 -39.64,186.21 -103.6,250.07 -63.89,63.92 -152.53,103.55 -250.07,103.53 -97.56,0.02 -186.21,-39.61 -250.1,-103.53 -63.94,-63.87 -103.59,-152.5 -103.57,-250.07 -0.01,-97.54 39.63,-186.19 103.57,-250.08 63.88,-63.95 152.53,-103.62 250.1,-103.6 97.55,-0.01 186.19,39.65 250.08,103.6 63.95,63.89 103.61,152.53 103.59,250.08 l -36,0"
           style="fill:#231f20;fill-opacity:1;fill-rule:nonzero;stroke:none"
           id="path216"
           inkscape:connector-curvature="0" /></g></g><g
       id="g218"><g
         id="g220"
         clip-path="url(#clipPath222)"><path
           d="m 2973.23,2357.59 c 0,-34.38 -28.05,-62.22 -62.44,-62.22 l -311.13,0 c -34.31,0 -62.08,27.84 -62.08,62.22 l 0,228.24 c 0,34.38 27.77,62.22 62.08,62.22 l 311.13,0 c 34.39,0 62.44,-27.84 62.44,-62.22 l 0,-228.24"
           style="fill:url(#linearGradient226);fill-opacity:1;fill-rule:nonzero;stroke:none"
           id="path232"
           inkscape:connector-curvature="0" /></g></g><g
       id="g234"><g
         id="g236"
         clip-path="url(#clipPath238)"><path
           d="m 2973.23,2357.59 -36,0 c -0.02,-7.29 -2.87,-13.6 -7.72,-18.49 -4.9,-4.83 -11.34,-7.72 -18.72,-7.73 l -311.13,0 c -7.32,0.02 -13.59,2.86 -18.42,7.64 -4.78,4.85 -7.65,11.18 -7.66,18.58 l 0,228.24 c 0.01,7.4 2.88,13.74 7.66,18.58 4.83,4.78 11.1,7.62 18.42,7.64 l 311.13,0 c 7.38,-0.01 13.82,-2.9 18.72,-7.73 4.85,-4.89 7.7,-11.2 7.72,-18.49 l 0,-228.24 72,0 0,228.24 c 0.02,27.09 -11.15,51.89 -28.93,69.52 -17.72,17.69 -42.5,28.72 -69.51,28.7 l -311.13,0 c -26.99,0.02 -51.76,-11.06 -69.39,-28.79 -17.69,-17.67 -28.71,-42.45 -28.69,-69.43 l 0,-228.24 c -0.02,-26.98 11,-51.75 28.69,-69.43 17.63,-17.73 42.4,-28.81 69.39,-28.79 l 311.13,0 c 27.01,-0.01 51.79,11.01 69.51,28.7 17.77,17.63 28.95,42.44 28.93,69.52 l -36,0"
           style="fill:#231f20;fill-opacity:1;fill-rule:nonzero;stroke:none"
           id="path242"
           inkscape:connector-curvature="0" /></g></g><g
       id="g244"><g
         id="g246"
         clip-path="url(#clipPath248)"><path
           d="m 2076.54,2649.32 c 0,-34.38 27.91,-62.3 62.3,-62.3 l 1271.95,0 c 34.24,0 62.08,27.92 62.08,62.3 l 0,462.79 c 0,34.39 -27.84,62.23 -62.08,62.23 l -1271.95,0 c -34.39,0 -62.3,-27.84 -62.3,-62.23 l 0,-462.79"
           style="fill:url(#linearGradient252);fill-opacity:1;fill-rule:nonzero;stroke:none"
           id="path258"
           inkscape:connector-curvature="0" /></g></g><g
       id="g260"><g
         id="g262"
         clip-path="url(#clipPath264)"><path
           d="m 2076.54,2649.32 -36,0 c -0.02,-27.03 11.07,-51.82 28.79,-69.5 17.68,-17.73 42.47,-28.82 69.51,-28.8 l 1271.95,0 c 27.01,-0.02 51.76,11.11 69.38,28.84 17.68,17.68 28.72,42.45 28.7,69.46 l 0,462.79 c 0.02,27.02 -11.03,51.79 -28.72,69.45 -17.64,17.72 -42.38,28.8 -69.36,28.78 l -1271.95,0 c -27.01,0.02 -51.8,-11.03 -69.48,-28.74 -17.74,-17.65 -28.84,-42.45 -28.82,-69.49 l 0,-462.79 72,0 0,462.79 c 0.02,7.36 2.87,13.67 7.69,18.54 4.87,4.8 11.23,7.68 18.61,7.69 l 1271.95,0 c 7.26,-0.01 13.56,-2.85 18.41,-7.65 4.79,-4.86 7.66,-11.2 7.67,-18.58 l 0,-462.79 c -0.01,-7.37 -2.89,-13.75 -7.7,-18.63 -4.86,-4.82 -11.15,-7.65 -18.38,-7.67 l -1271.95,0 c -7.35,0.02 -13.71,2.88 -18.59,7.71 -4.83,4.88 -7.7,11.24 -7.71,18.59 l -36,0"
           style="fill:#231f20;fill-opacity:1;fill-rule:nonzero;stroke:none"
           id="path268"
           inkscape:connector-curvature="0" /><path
           d="m 1061.37,3061.63 447.391,0 0,349.953 -447.391,0 0,-349.953 z"
           style="fill:#231f20;fill-opacity:1;fill-rule:nonzero;stroke:none"
           id="path270"
           inkscape:connector-curvature="0" /><path
           d="m 1061.37,3411.58 -618.261,287.78 0,-902.25 618.261,264.52 0,349.95"
           style="fill:#231f20;fill-opacity:1;fill-rule:nonzero;stroke:none"
           id="path272"
           inkscape:connector-curvature="0" /><path
           d="m 2986.8,4819.65 322.74,0 692.36,-999.63 c 0,0 -284.06,-34.95 -377.29,-163.33 0,0 -66.1,-97.32 -50.7,-217.76 l -1139.48,0 -19.41,497.88 571.78,882.84"
           style="fill:#231f20;fill-opacity:1;fill-rule:nonzero;stroke:none"
           id="path274"
           inkscape:connector-curvature="0" /></g></g><g
       id="g276"><g
         id="g278"
         clip-path="url(#clipPath280)"><path
           d="m 3107.32,4601.9 c 0,-431.72 -349.95,-781.88 -781.74,-781.88 -431.86,0 -781.8,350.16 -781.8,781.88 0,431.72 349.94,781.66 781.8,781.66 431.79,0 781.74,-349.94 781.74,-781.66"
           style="fill:url(#radialGradient284);fill-opacity:1;fill-rule:nonzero;stroke:none"
           id="path292"
           inkscape:connector-curvature="0" /></g></g><g
       id="g294"><g
         id="g296"
         clip-path="url(#clipPath298)"><path
           d="m 3107.32,4601.9 -36,0 c -0.02,-206.03 -83.41,-392.28 -218.41,-527.38 -135.06,-135.04 -321.26,-218.47 -527.33,-218.49 -206.1,0.02 -392.32,83.45 -527.39,218.49 -135.01,135.1 -218.39,321.35 -218.41,527.38 0.02,206.04 83.4,392.22 218.41,527.27 135.06,134.99 321.29,218.37 527.39,218.39 206.07,-0.02 392.28,-83.4 527.34,-218.39 135,-135.05 218.38,-321.23 218.4,-527.27 l 72,0 c 0.02,225.69 -91.57,430.33 -239.49,578.18 -147.87,147.91 -352.53,239.5 -578.25,239.48 -225.75,0.02 -430.43,-91.56 -578.3,-239.48 -147.93,-147.85 -239.52,-352.49 -239.5,-578.18 -0.02,-225.68 91.57,-430.38 239.49,-578.28 147.87,-147.97 352.55,-239.61 578.31,-239.59 225.73,-0.02 430.39,91.62 578.25,239.59 147.92,147.9 239.5,352.6 239.49,578.28 l -36,0"
           style="fill:#231f20;fill-opacity:1;fill-rule:nonzero;stroke:none"
           id="path302"
           inkscape:connector-curvature="0" /></g></g><g
       id="g304"><g
         id="g306"
         clip-path="url(#clipPath308)"><path
           d="m 4717.47,4601.9 c 0,-431.72 -350.08,-781.88 -781.8,-781.88 -431.58,0 -781.66,350.16 -781.66,781.88 0,431.72 350.08,781.66 781.66,781.66 431.72,0 781.8,-349.94 781.8,-781.66"
           style="fill:url(#radialGradient312);fill-opacity:1;fill-rule:nonzero;stroke:none"
           id="path320"
           inkscape:connector-curvature="0" /></g></g><g
       id="g322"><g
         id="g324"
         clip-path="url(#clipPath326)"><path
           d="m 4717.47,4601.9 -36,0 c -0.01,-206.03 -83.43,-392.27 -218.46,-527.38 -135.09,-135.04 -321.31,-218.48 -527.34,-218.49 -205.95,0.01 -392.14,83.45 -527.21,218.49 -135.02,135.11 -218.44,321.35 -218.45,527.38 0.01,206.03 83.43,392.22 218.44,527.27 135.07,134.99 321.26,218.37 527.22,218.39 206.04,-0.02 392.26,-83.4 527.35,-218.39 135.02,-135.05 218.44,-321.24 218.45,-527.27 l 72,0 c 0.02,225.69 -91.61,430.33 -239.55,578.19 -147.89,147.9 -352.56,239.49 -578.25,239.47 -225.62,0.02 -430.26,-91.57 -578.13,-239.48 -147.92,-147.85 -239.55,-352.49 -239.53,-578.18 -0.02,-225.69 91.6,-430.38 239.53,-578.28 147.86,-147.96 352.5,-239.61 578.13,-239.59 225.69,-0.02 430.37,91.62 578.25,239.58 147.95,147.91 239.57,352.6 239.55,578.29 l -36,0"
           style="fill:#231f20;fill-opacity:1;fill-rule:nonzero;stroke:none"
           id="path330"
           inkscape:connector-curvature="0" /></g></g><g
       id="g332"><g
         id="g334"
         clip-path="url(#clipPath336)"><path
           d="m 4060.19,3438.93 c -7.73,0 -15.4,-3.38 -22.29,-9.35 -29.39,-11.54 -81.7,-29.6 -121.64,-29.6 l -233.29,0 0,-287.87 286.38,0 c 21.02,-1.4 45.14,-4.78 66.44,-12.23 7.6,-7.03 15.82,-11.04 24.4,-11.04 38.74,0 70.11,78.26 70.11,174.87 0,96.89 -31.37,175.22 -70.11,175.22"
           style="fill:url(#linearGradient340);fill-opacity:1;fill-rule:nonzero;stroke:none"
           id="path346"
           inkscape:connector-curvature="0" /></g></g><g
       id="g348"><g
         id="g350"
         clip-path="url(#clipPath352)"><path
           d="m 4060.19,3438.93 0,36 c -9.13,0.01 -17.86,-2.03 -25.54,-5.3 -7.71,-3.29 -14.44,-7.75 -20.34,-12.86 l 23.59,-27.19 -13.15,33.51 c -13.87,-5.45 -33.25,-12.45 -53.23,-17.92 -19.89,-5.52 -40.63,-9.28 -55.26,-9.19 l -233.29,0 c -9.48,0 -18.76,-3.84 -25.46,-10.55 -6.7,-6.7 -10.54,-15.97 -10.54,-25.45 l 0,-287.87 c 0,-9.48 3.84,-18.75 10.54,-25.45 6.71,-6.7 15.98,-10.54 25.46,-10.54 l 286.38,0 0,35.99 -2.4,-35.91 c 19,-1.23 40.43,-4.46 56.96,-10.3 l 11.88,33.98 -24.46,-26.42 c 6.05,-5.59 13.01,-10.63 21.22,-14.43 8.17,-3.79 17.72,-6.2 27.64,-6.19 10.95,-0.02 21.56,2.89 30.5,7.49 15.75,8.16 26.84,20.38 35.91,33.99 13.48,20.59 22.82,45.59 29.49,74.25 6.59,28.63 10.2,60.87 10.21,95.14 -0.01,26.17 -2.11,51.16 -6.01,74.26 -5.95,34.67 -15.53,64.93 -29.92,89.42 -7.29,12.22 -15.86,23.21 -27.24,32.11 -5.7,4.42 -12.16,8.28 -19.43,11.05 -7.24,2.78 -15.31,4.39 -23.51,4.38 l 0,-72 0,6.8 -1.67,-6.6 1.67,-0.2 0,6.8 -1.67,-6.6 0.71,2.79 -1.28,-2.6 0.57,-0.19 0.71,2.79 -1.28,-2.6 c 0.05,-0.02 1.02,-0.55 2.56,-2.04 2.71,-2.57 6.91,-8.1 10.98,-16.19 6.19,-12.12 12.13,-29.74 16.24,-50.61 4.15,-20.9 6.57,-45.07 6.57,-70.77 0,-22.21 -1.82,-43.27 -5,-62.07 -4.69,-28.15 -12.88,-51.33 -20.86,-64.57 -3.9,-6.64 -7.66,-10.6 -9.45,-11.92 l -0.91,-0.63 -0.11,-0.06 0.51,-1.02 -0.4,1.07 -0.11,-0.05 0.51,-1.02 -0.4,1.07 2.11,-5.65 0,5.98 c -0.91,0.02 -1.82,-0.21 -2.11,-0.33 l 2.11,-5.65 0,5.98 0,-5.85 2.5,5.43 c -0.01,0.03 -1.15,0.44 -2.5,0.42 l 0,-5.85 2.5,5.43 -0.61,0.38 -1.83,1.49 c -3.69,3.42 -7.82,5.91 -12.57,7.57 -26.07,9.06 -52.88,12.59 -75.93,14.18 l -2.4,0.08 -250.38,0 0,215.86 197.29,0 c 25.32,0.08 50.7,5.35 74.29,11.75 23.52,6.45 44.99,14.25 60.5,20.33 3.72,1.46 7.43,3.71 10.44,6.32 l 1.12,0.86 0.25,0.15 -2.67,5.58 0,-6.04 c 1.58,-0.01 2.67,0.44 2.67,0.46 l -2.67,5.58 0,-6.04 0,36"
           style="fill:#231f20;fill-opacity:1;fill-rule:nonzero;stroke:none"
           id="path356"
           inkscape:connector-curvature="0" /></g></g><g
       id="g358"><g
         id="g360"
         clip-path="url(#clipPath362)"><path
           d="m 1380.37,3030.48 256.707,0 0,408.449 -256.707,0 0,-408.449 z"
           style="fill:url(#linearGradient366);fill-opacity:1;fill-rule:nonzero;stroke:none"
           id="path390"
           inkscape:connector-curvature="0" /></g></g><g
       id="g392"><g
         id="g394"
         clip-path="url(#clipPath396)"><path
           d="m 1637.08,3030.48 0,36 -220.71,0 0,336.46 184.71,0 0,-372.46 36,0 0,36 0,-36 36,0 0,408.45 c 0,9.48 -3.84,18.75 -10.54,25.46 -6.7,6.7 -15.98,10.54 -25.46,10.54 l -256.71,0 c -9.48,0 -18.75,-3.84 -25.45,-10.54 -6.71,-6.71 -10.55,-15.98 -10.55,-25.46 l 0,-408.45 c 0,-9.48 3.85,-18.75 10.55,-25.45 6.7,-6.7 15.97,-10.54 25.45,-10.54 l 256.71,0 c 9.48,0 18.75,3.84 25.46,10.54 6.7,6.7 10.54,15.97 10.54,25.45 l -36,0"
           style="fill:#231f20;fill-opacity:1;fill-rule:nonzero;stroke:none"
           id="path400"
           inkscape:connector-curvature="0" /></g></g><g
       id="g402"><g
         id="g404"
         clip-path="url(#clipPath406)"><path
           d="m 1835.51,3061.63 260.5,0 0,349.953 -260.5,0 0,-349.953 z"
           style="fill:url(#linearGradient410);fill-opacity:1;fill-rule:nonzero;stroke:none"
           id="path434"
           inkscape:connector-curvature="0" /></g></g><g
       id="g436"><g
         id="g438"
         clip-path="url(#clipPath440)"><path
           d="m 2096.01,3061.63 0,36 -224.5,0 0,277.95 188.5,0 0,-313.95 36,0 0,36 0,-36 36,0 0,349.95 c 0,9.48 -3.84,18.75 -10.54,25.45 -6.7,6.71 -15.98,10.55 -25.46,10.55 l -260.5,0 c -9.48,0 -18.76,-3.84 -25.46,-10.55 -6.7,-6.7 -10.54,-15.97 -10.54,-25.45 l 0,-349.95 c 0,-9.48 3.84,-18.76 10.54,-25.46 6.7,-6.7 15.98,-10.54 25.46,-10.54 l 260.5,0 c 9.48,0 18.76,3.84 25.46,10.54 6.7,6.7 10.54,15.98 10.54,25.46 l -36,0"
           style="fill:#231f20;fill-opacity:1;fill-rule:nonzero;stroke:none"
           id="path444"
           inkscape:connector-curvature="0" /></g></g><g
       id="g446"><g
         id="g448"
         clip-path="url(#clipPath450)"><path
           d="m 1205.3,2890.35 112.918,0 0,610.727 -112.918,0 0,-610.727 z"
           style="fill:url(#linearGradient454);fill-opacity:1;fill-rule:nonzero;stroke:none"
           id="path460"
           inkscape:connector-curvature="0" /></g></g><g
       id="g462"><g
         id="g464"
         clip-path="url(#clipPath466)"><path
           d="m 1318.22,2890.35 0,36 -76.92,0 0,538.73 40.91,0 0.01,-574.73 36,0 0,36 0,-36 36,0 0,610.73 c 0,9.48 -3.84,18.75 -10.55,25.46 -6.7,6.7 -15.97,10.54 -25.45,10.54 l -112.92,0 c -9.48,0 -18.76,-3.84 -25.46,-10.54 -6.7,-6.71 -10.54,-15.98 -10.54,-25.46 l 0,-610.73 c 0,-9.48 3.84,-18.76 10.54,-25.46 6.7,-6.7 15.98,-10.54 25.46,-10.54 l 112.92,0 c 9.48,0 18.75,3.84 25.45,10.54 6.7,6.7 10.55,15.98 10.55,25.46 l -36,0"
           style="fill:#231f20;fill-opacity:1;fill-rule:nonzero;stroke:none"
           id="path470"
           inkscape:connector-curvature="0" /><path
           d="m 3154.01,4189.44 c -66.17,0 -93.31,-60.25 -93.31,-60.25 0.14,-4.58 0.42,-9.15 1.06,-13.58 10.61,-94.22 92.25,-143.92 92.25,-143.92 0,0 81.56,49.7 92.32,143.92 0.56,4.43 0.91,9 0.98,13.58 0,0 -27.14,60.25 -93.3,60.25"
           style="fill:#7b7979;fill-opacity:1;fill-rule:nonzero;stroke:none"
           id="path472"
           inkscape:connector-curvature="0" /><path
           d="m 3095.72,3924.93 c 0,-25.74 -20.96,-46.48 -46.76,-46.48 -25.81,0 -46.62,20.74 -46.62,46.48 0,25.94 20.81,46.76 46.62,46.76 25.8,0 46.76,-20.82 46.76,-46.76"
           style="fill:#7b7979;fill-opacity:1;fill-rule:nonzero;stroke:none"
           id="path474"
           inkscape:connector-curvature="0" /><path
           d="m 3309.54,3924.93 c 0,-25.74 -20.82,-46.48 -46.62,-46.48 -25.73,0 -46.69,20.74 -46.69,46.48 0,25.94 20.96,46.76 46.69,46.76 25.8,0 46.62,-20.82 46.62,-46.76"
           style="fill:#7b7979;fill-opacity:1;fill-rule:nonzero;stroke:none"
           id="path476"
           inkscape:connector-curvature="0" /><path
           d="m 3095.72,3765.45 c 0,-19.12 -15.82,-34.87 -35.02,-34.87 -19.33,0 -35.09,15.75 -35.09,34.87 0,19.49 15.76,35.16 35.09,35.16 19.2,0 35.02,-15.67 35.02,-35.16"
           style="fill:#7b7979;fill-opacity:1;fill-rule:nonzero;stroke:none"
           id="path478"
           inkscape:connector-curvature="0" /><path
           d="m 3189.02,3765.45 c 0,-19.12 -15.68,-34.87 -35.01,-34.87 -19.34,0 -34.95,15.75 -34.95,34.87 0,19.49 15.61,35.16 34.95,35.16 19.33,0 35.01,-15.67 35.01,-35.16"
           style="fill:#7b7979;fill-opacity:1;fill-rule:nonzero;stroke:none"
           id="path480"
           inkscape:connector-curvature="0" /><path
           d="m 3282.19,3765.45 c 0,-19.12 -15.47,-34.87 -34.88,-34.87 -19.33,0 -34.94,15.75 -34.94,34.87 0,19.49 15.61,35.16 34.94,35.16 19.41,0 34.88,-15.67 34.88,-35.16"
           style="fill:#7b7979;fill-opacity:1;fill-rule:nonzero;stroke:none"
           id="path482"
           inkscape:connector-curvature="0" /><path
           d="m 2306.11,3349.49 1186.31,0 0,349.871 -1186.31,0 0,-349.871 z"
           style="fill:#4f4c4c;fill-opacity:1;fill-rule:nonzero;stroke:none"
           id="path484"
           inkscape:connector-curvature="0" /><path
           d="m 3492.42,3349.49 0,36 -1150.31,0 0,277.87 1114.31,0 0,-313.87 36,0 0,36 0,-36 36,0 0,349.87 c 0,9.48 -3.84,18.75 -10.54,25.46 -6.71,6.7 -15.98,10.54 -25.46,10.54 l -1186.31,0 c -9.48,0 -18.76,-3.84 -25.46,-10.54 -6.7,-6.71 -10.54,-15.98 -10.54,-25.46 l 0,-349.87 c 0,-9.48 3.84,-18.75 10.54,-25.46 6.71,-6.7 15.98,-10.54 25.46,-10.54 l 1186.31,0 c 9.48,0 18.75,3.84 25.46,10.54 6.7,6.71 10.54,15.98 10.54,25.46 l -36,0"
           style="fill:#231f20;fill-opacity:1;fill-rule:nonzero;stroke:none"
           id="path486"
           inkscape:connector-curvature="0" /><path
           d="m 3422.46,3403.84 -135,0 72.98,0 -67.16,28.51 c -3.77,-8.83 -5.84,-18.82 -5.82,-28.51 l 72.98,0 -67.16,28.51 66.93,-28.41 -40.58,60.36 c -11.53,-7.77 -20.66,-18.62 -26.35,-31.95 l 66.93,-28.41 -40.58,60.36 40.53,-60.29 0,72.68 c -14.51,0.04 -29.09,-4.61 -40.53,-12.39 l 40.53,-60.29 0,72.68 -824.55,0 0,-72.51 28.12,66.8 c -8.78,3.72 -18.62,5.72 -28.12,5.71 l 0,-72.51 28.12,66.8 -28.28,-67.18 60.4,40.8 c -7.88,11.66 -18.88,20.78 -32.12,26.38 l -28.28,-67.18 60.4,40.8 -60.34,-40.76 72.87,0 c 0.06,14.41 -4.62,29.21 -12.53,40.76 l -60.34,-40.76 72.87,0 0,139.99 -72.7,0 66.96,-28.26 c 3.73,8.79 5.76,18.66 5.74,28.26 l -72.7,0 66.96,-28.26 -67.01,28.29 40.72,-60.29 c 11.59,7.85 20.68,18.77 26.29,32 l -67.01,28.29 40.72,-60.29 -40.74,60.31 0,-72.82 c 14.48,-0.06 29.24,4.65 40.74,12.51 l -40.74,60.31 0,-72.82 824.55,0 0,72.82 -28.33,-67.06 c 8.74,-3.72 18.63,-5.78 28.33,-5.76 l 0,72.82 -28.33,-67.06 28.2,66.74 -60,-40.65 c 7.84,-11.52 18.62,-20.49 31.8,-26.09 l 28.2,66.74 -60,-40.65 60.4,40.93 -72.97,-0.01 c -0.06,-14.71 4.73,-29.49 12.57,-40.92 l 60.4,40.93 -72.97,-0.01 0,-139.99 270,0 0,139.99 c 0.02,26.94 -5.56,53.28 -15.64,76.97 -15.14,35.6 -40,65.37 -71.38,86.56 -31.29,21.19 -69.89,33.75 -110.28,33.7 l -824.55,0 c -26.82,0.02 -53.11,-5.5 -76.8,-15.53 -35.61,-15.07 -65.51,-39.96 -86.74,-71.4 -21.24,-31.36 -33.74,-70.01 -33.69,-110.3 l 0,-139.99 c -0.02,-26.77 5.48,-53.05 15.51,-76.75 15.06,-35.62 39.99,-65.57 71.48,-86.79 31.4,-21.24 70.06,-33.67 110.24,-33.61 l 824.55,0 c 26.78,-0.02 52.97,5.47 76.59,15.44 35.5,14.97 65.41,39.69 86.76,71.11 10.67,15.72 19.18,33.17 25.01,51.86 5.84,18.67 8.95,38.57 8.94,58.74 l -135,0"
           style="fill:#918f90;fill-opacity:1;fill-rule:nonzero;stroke:none"
           id="path488"
           inkscape:connector-curvature="0" /><path
           d="m 2306.11,3477.74 0,221.62 -229.57,0 0,-221.62 -62.23,0 0,-447.26 1742.49,0 0,447.26 -1450.69,0"
           style="fill:#231f20;fill-opacity:1;fill-rule:nonzero;stroke:none"
           id="path490"
           inkscape:connector-curvature="0" /><path
           d="m 2362.64,3420.15 c 0,-78.82 -63.84,-142.94 -143.02,-142.94 -79.03,0 -143.08,64.12 -143.08,142.94 0,79.04 64.05,143.3 143.08,143.3 79.18,0 143.02,-64.26 143.02,-143.3"
           style="fill:#918f90;fill-opacity:1;fill-rule:nonzero;stroke:none"
           id="path492"
           inkscape:connector-curvature="0" /><path
           d="m 2900.39,3236.57 c 0,-79.04 -64.19,-143.02 -143.02,-143.02 -79.1,0 -143.15,63.98 -143.15,143.02 0,79.03 64.05,143.08 143.15,143.08 78.83,0 143.02,-64.05 143.02,-143.08"
           style="fill:#918f90;fill-opacity:1;fill-rule:nonzero;stroke:none"
           id="path494"
           inkscape:connector-curvature="0" /></g></g><g
       id="g496"><g
         id="g498"
         clip-path="url(#clipPath500)"><path
           d="m 1609.87,2948.85 272.25,0 0,552.227 -272.25,0 0,-552.227 z"
           style="fill:url(#linearGradient504);fill-opacity:1;fill-rule:nonzero;stroke:none"
           id="path510"
           inkscape:connector-curvature="0" /></g></g><g
       id="g512"><g
         id="g514"
         clip-path="url(#clipPath516)"><path
           d="m 1882.12,2948.85 0,36 -236.25,0 0,480.23 200.25,0 0,-516.23 36,0 0,36 0,-36 36,0 0,552.23 c 0,9.48 -3.84,18.75 -10.54,25.46 -6.71,6.7 -15.98,10.54 -25.46,10.54 l -272.25,0 c -9.48,0 -18.75,-3.84 -25.45,-10.54 -6.71,-6.71 -10.55,-15.98 -10.55,-25.46 l 0,-552.23 c 0,-9.48 3.84,-18.75 10.55,-25.45 6.7,-6.71 15.97,-10.55 25.45,-10.55 l 272.25,0 c 9.48,0 18.75,3.84 25.46,10.55 6.7,6.7 10.54,15.97 10.54,25.45 l -36,0"
           style="fill:#231f20;fill-opacity:1;fill-rule:nonzero;stroke:none"
           id="path520"
           inkscape:connector-curvature="0" /><path
           d="m 4637.81,2321.94 c -39.37,0 -73.06,29.46 -77.27,69.47 -4.57,42.76 26.29,81.21 69.04,85.65 0,0 221.49,93.37 397.97,93.01 176.21,0 517.85,54.5 554.27,-69.39 31.65,-106.74 -300.79,-157.36 -510.67,-178.74 -209.74,-21.51 -424.9,0.43 -424.9,0.43 -2.81,-0.43 -5.63,-0.43 -8.44,-0.43"
           style="fill:#231f20;fill-opacity:1;fill-rule:nonzero;stroke:none"
           id="path522"
           inkscape:connector-curvature="0" /></g></g><g
       id="g524"><g
         id="g526"
         clip-path="url(#clipPath528)"><path
           d="m 3273.96,2175.9 c -39.23,0 -72.98,29.6 -77.27,69.68 -4.57,42.76 26.29,81.01 69.04,85.5 l 1363.85,145.98 c 42.68,4.7 81,-26.3 85.64,-69.06 4.57,-42.89 -26.36,-81.14 -68.97,-85.63 L 3282.19,2176.39 c -2.68,-0.27 -5.49,-0.49 -8.23,-0.49"
           style="fill:url(#linearGradient532);fill-opacity:1;fill-rule:nonzero;stroke:none"
           id="path548"
           inkscape:connector-curvature="0" /></g></g><g
       id="g550"><g
         id="g552"
         clip-path="url(#clipPath554)"><path
           d="m 3273.96,2175.9 0,36 c -10.5,0.01 -20.21,3.94 -27.74,10.65 -7.51,6.76 -12.54,15.9 -13.74,26.86 -0.16,1.55 -0.24,3.08 -0.24,4.56 0,10.54 3.93,20.22 10.6,27.71 6.72,7.46 15.79,12.44 26.65,13.6 l 0.07,0.01 1363.85,145.97 0.12,0.01 c 1.6,0.18 3.14,0.26 4.62,0.26 10.4,0 20.04,-3.91 27.56,-10.62 7.49,-6.75 12.53,-15.92 13.72,-26.79 l 0,0.07 c 0.16,-1.55 0.24,-3.08 0.24,-4.58 0,-10.6 -3.95,-20.32 -10.64,-27.83 -6.73,-7.48 -15.8,-12.45 -26.56,-13.61 l -0.05,-0.01 -1364.06,-145.97 0.16,0.02 c -2.02,-0.21 -3.69,-0.31 -4.56,-0.31 l 0,-71.99 c 4.61,0 8.57,0.33 11.89,0.67 l 0.17,0.02 1364.06,145.98 -0.05,-0.01 c 29.03,3.05 54.67,17.01 72.7,37.25 18.08,20.21 28.94,47.01 28.94,75.79 0,4.04 -0.21,8.12 -0.65,12.2 l -0.01,0.08 c -3.13,29 -17.07,54.6 -37.25,72.64 -20.16,18.09 -46.89,29.01 -75.61,29 -4.18,0 -8.36,-0.23 -12.51,-0.69 l 0.11,0.01 -1363.85,-145.97 0.07,0.01 c -29.07,-3.04 -54.75,-16.98 -72.79,-37.21 -18.09,-20.2 -28.95,-46.98 -28.94,-75.71 0,-4.05 0.22,-8.13 0.65,-12.21 3.1,-29.13 17.08,-54.82 37.33,-72.88 20.22,-18.11 47,-28.98 75.74,-28.97 l 0,35.99"
           style="fill:#231f20;fill-opacity:1;fill-rule:nonzero;stroke:none"
           id="path558"
           inkscape:connector-curvature="0" /><path
           d="m 2802.16,2125.49 c -39.23,0 -72.91,29.67 -77.27,69.47 -4.5,42.89 26.37,81.14 69.19,85.71 l 471.65,50.41 c 42.76,4.65 81,-26.22 85.65,-69.04 4.57,-42.76 -26.37,-81 -69.19,-85.65 l -471.59,-50.41 c -2.81,-0.35 -5.63,-0.49 -8.44,-0.49"
           style="fill:#231f20;fill-opacity:1;fill-rule:nonzero;stroke:none"
           id="path560"
           inkscape:connector-curvature="0" /><path
           d="m 5545.83,2357.59 c -11.74,0 -23.07,6.68 -28.27,18.35 -7.17,15.47 -0.14,34.04 15.4,41.07 2.88,1.4 32.83,18.84 18.77,76.22 -14.55,58.91 -42.4,62.64 -43.59,62.78 -17.15,0.22 -30.38,14.06 -30.38,31.22 0.29,17.09 16.11,31.01 32.14,31.01 3.02,-0.14 75.51,-1.76 102.3,-110.04 21.59,-87.96 -25.52,-135.21 -53.44,-147.79 -4.22,-1.98 -8.64,-2.82 -12.93,-2.82"
           style="fill:#231f20;fill-opacity:1;fill-rule:nonzero;stroke:none"
           id="path562"
           inkscape:connector-curvature="0" /></g></g><g
       id="g564"><g
         id="g566"
         clip-path="url(#clipPath568)"><path
           d="m 2839.01,2186.73 c 0,-23.13 -18.78,-41.83 -41.98,-41.83 -22.99,0 -41.63,18.7 -41.63,41.83 0,23.28 18.64,41.69 41.63,41.69 23.2,0 41.98,-18.41 41.98,-41.69"
           style="fill:url(#linearGradient572);fill-opacity:1;fill-rule:nonzero;stroke:none"
           id="path584"
           inkscape:connector-curvature="0" /></g></g><g
       id="g586"><g
         id="g588"
         clip-path="url(#clipPath590)"><path
           d="m 1787.34,2060.1 -73.89,0 c -17.3,0 -31.22,13.85 -31.22,31.01 0,17.08 13.92,31 31.22,31 l 54.35,0 209.32,429.26 c 5.13,10.62 16.03,17.51 27.91,17.51 l 205.38,0 c 17.16,0 31.08,-13.92 31.08,-31.08 0,-17.3 -13.92,-31.14 -31.08,-31.14 l -185.9,0 -209.33,-429.13 c -5.13,-10.83 -16.03,-17.43 -27.84,-17.43"
           style="fill:#bdbcbc;fill-opacity:1;fill-rule:nonzero;stroke:none"
           id="path594"
           inkscape:connector-curvature="0" /><path
           d="m 1787.34,2060.1 0,36 -73.89,0 0,-4.69 3.27,3.3 c -0.81,0.86 -2.23,1.42 -3.27,1.39 l 0,-4.69 3.27,3.3 -3.57,-3.6 5.08,0 c 0.02,1.26 -0.64,2.81 -1.51,3.6 l -3.57,-3.6 5.08,0 -5.08,0 3.59,-3.61 c 0.84,0.77 1.5,2.27 1.49,3.61 l -5.08,0 3.59,-3.61 -3.29,3.32 0,-4.7 c 1.1,-0.02 2.52,0.55 3.29,1.38 l -3.29,3.32 0,-4.7 54.35,0 c 13.77,0 26.32,7.84 32.35,20.22 l 209.33,429.25 0.05,0.12 -4.5,2.18 0,-5.01 c 2.13,0.09 3.51,0.95 4.5,2.83 l -4.5,2.18 0,-5.01 205.38,0 0,4.93 -3.48,-3.49 c 0.77,-0.82 2.22,-1.45 3.48,-1.44 l 0,4.93 -3.48,-3.49 3.48,3.48 -4.92,0 c -0.01,-1.26 0.61,-2.71 1.44,-3.48 l 3.48,3.48 -4.92,0 4.85,0 -3.41,3.4 c -0.86,-0.79 -1.46,-2.29 -1.44,-3.4 l 4.85,0 -3.41,3.4 3.48,-3.48 0,4.94 c -1.2,0.02 -2.67,-0.6 -3.48,-1.46 l 3.48,-3.48 0,4.94 -185.9,0 c -13.78,0 -26.32,-7.84 -32.36,-20.22 l -209.32,-429.12 -0.18,-0.37 5.14,-2.43 -3,4.83 c -0.84,-0.5 -1.69,-1.43 -2.14,-2.4 l 5.14,-2.43 -3,4.83 2.55,-4.11 0,4.86 -2.55,-0.75 2.55,-4.11 0,4.86 0,-72 c 12.62,0 24.87,3.53 35.41,10.07 10.52,6.51 19.39,16.15 24.97,27.95 l -32.54,15.41 32.36,-15.78 199.46,408.91 163.41,0 c 18.36,-0.02 35.37,7.51 47.43,19.62 12.11,12.05 19.68,29.11 19.65,47.52 0.02,18.42 -7.57,35.41 -19.65,47.43 -12.02,12.08 -29.01,19.67 -47.43,19.65 l -205.38,0 c -25.9,-0.08 -49.07,-14.74 -60.32,-37.84 l 0.05,0.11 -199.46,-409.03 -31.85,0 c -18.41,0.02 -35.43,-7.52 -47.5,-19.59 -12.12,-12 -19.74,-29 -19.73,-47.42 -0.02,-18.41 7.6,-35.47 19.75,-47.47 12.1,-12.08 29.13,-19.56 47.48,-19.54 l 73.89,0 0,36"
           style="fill:#231f20;fill-opacity:1;fill-rule:nonzero;stroke:none"
           id="path596"
           inkscape:connector-curvature="0" /><path
           d="m 1736.72,2091.11 c 0,-38.25 -106.46,-69.41 -144.64,-69.41 -38.24,0 -69.32,31.16 -69.32,69.41 0,38.32 31.08,69.33 69.32,69.33 38.18,0 144.64,-31.01 144.64,-69.33"
           style="fill:#231f20;fill-opacity:1;fill-rule:nonzero;stroke:none"
           id="path598"
           inkscape:connector-curvature="0" /></g></g></g></svg>